<?xml version="1.0" standalone="no"?>
<!DOCTYPE svg PUBLIC "-//W3C//DTD SVG 20010904//EN"
 "http://www.w3.org/TR/2001/REC-SVG-20010904/DTD/svg10.dtd">
<svg version="1.0" xmlns="http://www.w3.org/2000/svg"
 width="700.000000pt" height="700.000000pt" viewBox="0 0 700.000000 700.000000"
 preserveAspectRatio="xMidYMid meet">
<metadata>
Created by potrace 1.14, written by Peter Selinger 2001-2017
</metadata>
<g transform="translate(0.000000,700.000000) scale(0.100000,-0.100000)"
fill="#000000" stroke="none">
<path d="M1065 6990 c-282 -44 -513 -158 -705 -349 -187 -185 -304 -420 -349
-696 -6 -38 -9 -946 -8 -2480 l3 -2420 22 -88 c105 -427 401 -755 804 -891
192 -65 -35 -60 2633 -63 2560 -2 2472 -4 2639 42 462 124 814 529 885 1015
15 100 8 4884 -6 4935 -7 22 -14 51 -16 65 -7 38 -54 174 -79 227 -177 381
-530 642 -948 702 -78 12 -4801 12 -4875 1z"/>
</g>
</svg>
