<svg xmlns="http://www.w3.org/2000/svg"  viewBox="0 0 64 64" width="512px" height="512px"><linearGradient id="EgRYQKvHI4BoRDmL4Qu6la" x1="32" x2="32" y1="9" y2="55" gradientUnits="userSpaceOnUse" spreadMethod="reflect"><stop offset="0" stop-color="#1a6dff"/><stop offset="1" stop-color="#c822ff"/></linearGradient><path fill="url(#EgRYQKvHI4BoRDmL4Qu6la)" d="M51,9h-9c-2.21,0-4,1.79-4,4v11H27c-2.21,0-4,1.79-4,4v10H13c-2.21,0-4,1.79-4,4v9 c0,2.21,1.79,4,4,4h38c2.21,0,4-1.79,4-4V13C55,10.79,53.21,9,51,9z M38,53H13c-1.1,0-2-0.9-2-2v-9c0-1.1,0.9-2,2-2h11 c0.55,0,1-0.45,1-1V28c0-1.1,0.9-2,2-2h11V53z M53,51c0,1.1-0.9,2-2,2H40V13c0-1.1,0.9-2,2-2h9c1.1,0,2,0.9,2,2V51z"/><linearGradient id="EgRYQKvHI4BoRDmL4Qu6lb" x1="46.5" x2="46.5" y1="11" y2="53" gradientUnits="userSpaceOnUse" spreadMethod="reflect"><stop offset="0" stop-color="#6dc7ff"/><stop offset="1" stop-color="#e6abff"/></linearGradient><path fill="url(#EgRYQKvHI4BoRDmL4Qu6lb)" d="M53,13v38c0,1.1-0.9,2-2,2H40V13c0-1.1,0.9-2,2-2h9C52.1,11,53,11.9,53,13z"/></svg>