<?xml version="1.0" ?><svg enable-background="new 0 0 24 24" id="Layer_1" version="1.1" viewBox="0 0 24 24" xml:space="preserve" xmlns="http://www.w3.org/2000/svg" xmlns:xlink="http://www.w3.org/1999/xlink"><g><polygon fill="#004793" points="14.7897291,2.5 13.5012102,2.5 13.1656733,2 12.5004005,2 1.4914888,20.5 1.9918939,21    2.4922991,21 2.9927042,22 12.7997761,22 19.4807205,10.6516113  "/><polygon fill="#003F7F" points="1.5012199,20.5 0.0000046,18 2.5020299,14 5.0040555,12.5 8.5068913,6.5 7.5060806,5 9.5077009,2    12.5101318,2  "/><polygon fill="#006A6F" points="18.5302448,9 14.7897291,2.5 13.5109234,2.5 13.5012102,2.5 13.1656733,2 12.5101128,2    12.5004005,2 8.3348579,9  "/><polygon fill="#004A52" points="7.0473781,9 8.3445702,9 12.5101128,2 9.5076828,2 7.506062,5 8.5068722,6.5  "/><polygon fill="#001054" points="24.0000038,18.5048218 19.4807205,10.6516113 12.7997761,22 22.0080967,22  "/><radialGradient cx="11.8471336" cy="14.166667" gradientTransform="matrix(1.0008101 0 0 1 -0.1069389 0)" gradientUnits="userSpaceOnUse" id="SVGID_1_" r="11.5674353"><stop offset="0" style="stop-color:#1BFFB9"/><stop offset="0.0672207" style="stop-color:#20E9C3"/><stop offset="0.214012" style="stop-color:#28C0D5"/><stop offset="0.3641801" style="stop-color:#2F9EE4"/><stop offset="0.5162987" style="stop-color:#3583F0"/><stop offset="0.6710815" style="stop-color:#3970F8"/><stop offset="0.8300937" style="stop-color:#3B65FD"/><stop offset="1" style="stop-color:#3C61FF"/></radialGradient><polygon fill="url(#SVGID_1_)" points="13.5012102,3.5 3.4931092,20.5 12.5004005,20.5 8.9975653,14.5 14.5020208,5.5  "/><radialGradient cx="9.6804676" cy="14.75" gradientTransform="matrix(1.0008101 0 0 1 -0.1069389 0)" gradientUnits="userSpaceOnUse" id="SVGID_2_" r="30.5724316"><stop offset="0" style="stop-color:#1BFFB9"/><stop offset="0.0672207" style="stop-color:#20E9C3"/><stop offset="0.214012" style="stop-color:#28C0D5"/><stop offset="0.3641801" style="stop-color:#2F9EE4"/><stop offset="0.5162987" style="stop-color:#3583F0"/><stop offset="0.6710815" style="stop-color:#3970F8"/><stop offset="0.8300937" style="stop-color:#3B65FD"/><stop offset="1" style="stop-color:#3C61FF"/></radialGradient><path d="M11.1953278,11.7446899l-1.2296333,1.9950562   c-0.2053661,0.3331909,0.0345745,0.7622681,0.4261875,0.762207l2.6427641-0.0005493L11.1953278,11.7446899z" fill="url(#SVGID_2_)"/><radialGradient cx="9.6804676" cy="14.75" gradientTransform="matrix(1.0008101 0 0 1 -0.1069389 0)" gradientUnits="userSpaceOnUse" id="SVGID_3_" r="30.5724316"><stop offset="0" style="stop-color:#1BFFB9"/><stop offset="0.0672207" style="stop-color:#20E9C3"/><stop offset="0.214012" style="stop-color:#28C0D5"/><stop offset="0.3641801" style="stop-color:#2F9EE4"/><stop offset="0.5162987" style="stop-color:#3583F0"/><stop offset="0.6710815" style="stop-color:#3970F8"/><stop offset="0.8300937" style="stop-color:#3B65FD"/><stop offset="1" style="stop-color:#3C61FF"/></radialGradient><polygon fill="url(#SVGID_3_)" points="13.6359634,14.5012817 20.0064774,14.5 14.8572884,5.8034058 11.4841356,11.2761841  "/><polygon fill="#00225C" points="2.4922991,21 2.9927042,22 12.7997761,22 13.3885098,21  "/><radialGradient cx="11.8471336" cy="14.166667" gradientTransform="matrix(1.0008101 0 0 1 -0.1069389 0)" gradientUnits="userSpaceOnUse" id="SVGID_4_" r="11.5674353"><stop offset="0" style="stop-color:#1BFFB9"/><stop offset="0.0672207" style="stop-color:#20E9C3"/><stop offset="0.214012" style="stop-color:#28C0D5"/><stop offset="0.3641801" style="stop-color:#2F9EE4"/><stop offset="0.5162987" style="stop-color:#3583F0"/><stop offset="0.6710815" style="stop-color:#3970F8"/><stop offset="0.8300937" style="stop-color:#3B65FD"/><stop offset="1" style="stop-color:#3C61FF"/></radialGradient><polygon fill="url(#SVGID_4_)" points="22.3318882,18.5 11.9999952,18.5 9.9983749,14.979167 20.2739105,15.0042696  "/><polygon fill="#000B3D" points="13.3885098,21 12.7997761,22 22.0080967,22 22.5780163,21  "/><linearGradient gradientUnits="userSpaceOnUse" id="SVGID_5_" x1="3.7914979" x2="23.698307" y1="9.8690968" y2="19.1517944"><stop offset="0" style="stop-color:#FFFFFF;stop-opacity:0.2"/><stop offset="1" style="stop-color:#FFFFFF;stop-opacity:0"/></linearGradient><polygon fill="url(#SVGID_5_)" points="14.7935143,2.5 13.505456,2.5 13.1700544,2 9.5038385,2 7.5030293,5 8.5034342,6.5    5.002018,12.5 2.5010066,14 -0.0000046,18 1.5006021,20.5 2.0008044,21 2.5010066,21 3.001209,22 22.008894,22    23.9999962,18.5048218  "/></g><g/><g/><g/><g/><g/><g/><g/><g/><g/><g/><g/><g/><g/><g/><g/></svg>
