<svg width="852.449" height="244.532" viewBox="0 0 852.449 244.532" xmlns="http://www.w3.org/2000/svg"><g id="svgGroup" stroke-linecap="round" fill-rule="evenodd" font-size="9pt" stroke="#833ab4" stroke-width="0.25mm" fill="#833ab4" style="stroke:#833ab4;stroke-width:0.25mm;fill:#833ab4"><path d="M 337.5 133.887 A 181.067 181.067 0 0 0 342.455 128.353 A 41.506 41.506 0 0 0 342.453 128.711 Q 342.453 130.183 342.578 131.543 A 41.389 41.389 0 0 0 342.873 133.974 Q 343.213 136.205 343.778 138.099 A 20.261 20.261 0 0 0 345.313 141.895 Q 346.252 143.647 347.379 144.987 A 12.601 12.601 0 0 0 350.586 147.754 Q 353.711 149.61 356.445 149.61 A 39.459 39.459 0 0 0 357.635 149.512 A 42.419 42.419 0 0 0 368.164 147.071 A 32.661 32.661 0 0 0 369.244 146.633 Q 371.597 145.63 374.073 144.156 A 57.664 57.664 0 0 0 378.906 140.918 A 29.68 29.68 0 0 0 380.361 139.766 Q 382.93 137.601 385.288 134.658 A 51.817 51.817 0 0 0 389.258 128.907 Q 389.063 134.18 389.941 137.696 A 51.324 51.324 0 0 0 390.529 139.856 Q 391.141 141.916 391.797 143.36 Q 392.346 144.55 393.024 145.483 A 8.772 8.772 0 0 0 394.727 147.266 Q 396.484 148.438 398.828 148.926 A 15.86 15.86 0 0 0 399.249 149.008 Q 400.73 149.275 402.326 149.275 A 20.071 20.071 0 0 0 403.809 149.219 A 23.431 23.431 0 0 0 408.984 148.242 Q 411.523 147.461 413.477 146.289 Q 415.582 144.886 418.445 142.019 A 82.003 82.003 0 0 0 420.801 139.551 A 175.763 175.763 0 0 0 424.124 135.825 A 212.382 212.382 0 0 0 429.785 129.004 A 456.409 456.409 0 0 0 432.816 125.159 A 66.09 66.09 0 0 0 433.092 127.943 Q 433.596 131.968 434.639 135.253 A 24.954 24.954 0 0 0 437.793 141.895 A 21.627 21.627 0 0 0 439.489 144.061 A 15.303 15.303 0 0 0 451.367 149.414 A 34.871 34.871 0 0 0 453.07 149.373 A 28.621 28.621 0 0 0 467.676 144.727 A 47.812 47.812 0 0 0 479.883 133.203 A 112.04 112.04 0 0 1 479.804 133.57 Q 479.239 136.165 478.418 139.356 A 1022.391 1022.391 0 0 0 477.515 142.896 A 1245.714 1245.714 0 0 0 476.563 146.68 A 222.009 222.009 0 0 0 473.724 148.96 A 271.449 271.449 0 0 0 468.75 153.125 A 1485.362 1485.362 0 0 0 464.551 156.739 A 1718.122 1718.122 0 0 0 460.156 160.547 Q 453.271 166.407 448.254 170.838 A 450.558 450.558 0 0 0 445.117 173.633 Q 441.73 176.682 439.158 179.535 A 50.806 50.806 0 0 0 435.84 183.594 A 33.527 33.527 0 0 0 434.822 185.071 A 28.845 28.845 0 0 0 431.055 193.457 A 33.621 33.621 0 0 0 430.442 196.293 Q 429.688 200.642 429.688 206.446 A 50.019 50.019 0 0 0 430.054 212.354 A 65.902 65.902 0 0 0 431.152 218.75 Q 432.617 225.391 435.742 231.153 Q 438.867 236.914 443.457 240.723 A 16.075 16.075 0 0 0 448.425 243.549 A 18.179 18.179 0 0 0 454.492 244.532 A 9.287 9.287 0 0 0 459.795 242.849 A 13.857 13.857 0 0 0 462.305 240.625 A 29.637 29.637 0 0 0 463.045 239.77 Q 464.634 237.863 466.099 235.48 A 52.378 52.378 0 0 0 468.75 230.567 Q 471.68 224.414 474.121 216.699 Q 476.563 208.985 478.418 201.172 A 596.249 596.249 0 0 0 480.176 193.555 A 504.428 504.428 0 0 0 481.738 186.328 L 484.18 174.61 Q 485.156 170.117 486.523 164.649 A 294.372 294.372 0 0 0 486.818 163.458 Q 488.097 158.253 489.844 150.391 A 156.668 156.668 0 0 0 493.478 148.104 Q 495.421 146.846 497.626 145.355 A 341.397 341.397 0 0 0 500.684 143.262 Q 507.031 138.867 513.77 133.106 A 181.388 181.388 0 0 0 516.24 130.949 A 2302.71 2302.71 0 0 1 516.177 131.076 Q 514.398 134.68 512.988 137.5 L 510.352 142.774 A 11.03 11.03 0 0 0 509.924 143.734 Q 509.446 144.974 509.474 145.961 A 3.354 3.354 0 0 0 509.57 146.68 A 3.937 3.937 0 0 0 509.792 147.333 A 2.534 2.534 0 0 0 511.23 148.731 A 3.109 3.109 0 0 0 512.356 148.934 Q 513.192 148.934 514.16 148.535 A 4.826 4.826 0 0 0 515.111 148.007 Q 515.706 147.586 516.259 146.956 A 10.191 10.191 0 0 0 517.188 145.703 A 5.978 5.978 0 0 0 517.271 145.589 Q 517.798 144.85 519.365 142.306 A 372.344 372.344 0 0 0 520.215 140.918 Q 522.656 136.914 526.172 131.153 A 2480.466 2480.466 0 0 0 529.81 125.171 A 3053.802 3053.802 0 0 0 533.691 118.75 A 3510.335 3510.335 0 0 0 537.598 112.256 A 3043.768 3043.768 0 0 0 541.309 106.055 A 1913.91 1913.91 0 0 1 543.481 102.423 Q 544.524 100.684 545.482 99.097 A 1079.322 1079.322 0 0 1 547.656 95.508 A 1040.41 1040.41 0 0 0 548.592 93.968 Q 550.014 91.623 550.737 90.396 A 66.871 66.871 0 0 0 551.172 89.649 A 17.726 17.726 0 0 1 552.68 90.101 A 23.157 23.157 0 0 1 554.492 90.821 A 7.542 7.542 0 0 0 555.047 91.041 Q 555.89 91.338 556.89 91.478 A 13.742 13.742 0 0 0 558.789 91.602 A 52.75 52.75 0 0 0 559.565 91.596 Q 560.753 91.579 561.426 91.504 A 24.627 24.627 0 0 1 561.816 91.464 Q 562.222 91.425 562.524 91.413 A 6.491 6.491 0 0 1 562.793 91.407 Q 563.281 91.407 563.77 91.309 A 3.267 3.267 0 0 1 563.771 91.309 Q 564.137 91.236 564.886 91.217 A 22.381 22.381 0 0 1 565.43 91.211 A 3.819 3.819 0 0 1 566.128 91.272 A 2.566 2.566 0 0 1 567.969 92.578 A 5.724 5.724 0 0 1 568.516 93.898 A 6.746 6.746 0 0 1 568.75 95.703 A 7.412 7.412 0 0 1 568.749 95.833 Q 568.716 97.69 567.759 100.12 A 26.184 26.184 0 0 1 566.699 102.442 A 133.305 133.305 0 0 1 565.294 105.106 Q 564.529 106.52 563.64 108.095 A 280.534 280.534 0 0 1 561.328 112.11 A 87.924 87.924 0 0 1 560.626 113.483 A 97.848 97.848 0 0 1 558.301 117.676 A 122.367 122.367 0 0 0 555.176 123.34 A 75.028 75.028 0 0 0 554.298 125.091 A 63.339 63.339 0 0 0 552.637 128.809 A 20.047 20.047 0 0 0 551.854 131.099 A 14.969 14.969 0 0 0 551.367 133.789 Q 551.259 135.408 551.479 137.176 A 23.615 23.615 0 0 0 552.051 140.137 Q 552.93 143.555 554.98 146.387 A 16.113 16.113 0 0 0 556.697 148.387 A 18.464 18.464 0 0 0 560.352 151.172 Q 563.672 153.125 568.75 153.125 A 16.472 16.472 0 0 0 569.477 153.109 Q 574.031 152.908 579.004 150.196 A 56.108 56.108 0 0 0 583.704 147.314 A 69.65 69.65 0 0 0 589.746 142.676 Q 595.117 138.086 600 132.52 A 222.884 222.884 0 0 0 602.808 129.256 A 30.399 30.399 0 0 0 602.93 131.543 A 41.389 41.389 0 0 0 603.224 133.974 Q 603.564 136.205 604.129 138.099 A 20.261 20.261 0 0 0 605.664 141.895 Q 606.604 143.647 607.731 144.987 A 12.601 12.601 0 0 0 610.937 147.754 Q 614.063 149.61 616.797 149.61 A 39.459 39.459 0 0 0 617.987 149.512 A 42.419 42.419 0 0 0 628.516 147.071 A 32.661 32.661 0 0 0 629.595 146.633 Q 631.948 145.63 634.424 144.156 A 57.664 57.664 0 0 0 639.258 140.918 A 29.68 29.68 0 0 0 640.713 139.766 Q 643.281 137.601 645.64 134.658 A 51.817 51.817 0 0 0 649.609 128.907 Q 649.414 134.18 650.293 137.696 A 51.324 51.324 0 0 0 650.88 139.856 Q 651.492 141.916 652.148 143.36 Q 652.698 144.55 653.376 145.483 A 8.772 8.772 0 0 0 655.078 147.266 Q 656.836 148.438 659.18 148.926 A 15.86 15.86 0 0 0 659.601 149.008 Q 661.082 149.275 662.677 149.275 A 20.071 20.071 0 0 0 664.16 149.219 A 23.431 23.431 0 0 0 669.336 148.242 Q 671.875 147.461 673.828 146.289 Q 675.934 144.886 678.796 142.019 A 82.003 82.003 0 0 0 681.152 139.551 A 175.763 175.763 0 0 0 684.476 135.825 A 212.382 212.382 0 0 0 690.137 129.004 A 456.409 456.409 0 0 0 697.826 119.078 L 692.578 140.821 A 31.116 31.116 0 0 0 692.243 142.493 Q 691.845 144.835 692.023 146.385 A 5.921 5.921 0 0 0 692.188 147.266 A 7.695 7.695 0 0 0 692.524 148.25 Q 692.76 148.806 693.063 149.219 A 2.959 2.959 0 0 0 694.043 150.098 A 4.351 4.351 0 0 0 696.136 150.63 A 4.85 4.85 0 0 0 696.777 150.586 A 15.235 15.235 0 0 0 697.405 150.49 Q 697.909 150.401 698.345 150.285 A 7.593 7.593 0 0 0 699.219 150 L 708.984 145.703 A 17.518 17.518 0 0 0 709.209 144.83 A 20.393 20.393 0 0 0 709.57 142.774 A 21.741 21.741 0 0 1 709.696 141.91 A 18.614 18.614 0 0 1 710.156 139.844 L 710.938 136.719 L 710.938 137.11 A 174.309 174.309 0 0 1 712.817 129.361 Q 714.26 123.979 715.904 119.417 A 80.256 80.256 0 0 1 719.434 111.035 A 106.947 106.947 0 0 1 722.165 105.863 Q 725.803 99.428 729.492 95.313 A 64.257 64.257 0 0 1 729.923 94.837 Q 733.033 91.437 735.771 89.452 A 18.649 18.649 0 0 1 738.672 87.696 Q 741.748 86.231 743.506 85.865 A 5.114 5.114 0 0 1 744.531 85.742 A 7.91 7.91 0 0 1 744.636 85.743 Q 746.904 85.773 748.145 87.11 A 3.265 3.265 0 0 1 748.617 87.779 Q 749.163 88.784 749.335 90.48 A 16.99 16.99 0 0 1 749.414 92.188 A 42.917 42.917 0 0 1 749.334 94.762 Q 749.071 99.132 747.949 104.59 A 226.42 226.42 0 0 1 744.531 118.848 A 260.427 260.427 0 0 1 742.554 125.708 A 209.479 209.479 0 0 1 740.527 132.032 A 556.93 556.93 0 0 0 740.211 132.969 Q 738.902 136.854 738.165 139.246 A 80.566 80.566 0 0 0 737.695 140.821 A 39.892 39.892 0 0 0 737.398 141.959 Q 736.255 146.638 737.305 147.949 Q 738.39 149.307 741.823 149.239 A 18.558 18.558 0 0 0 742.383 149.219 Q 743.152 149.109 744.044 148.937 A 52.227 52.227 0 0 0 745.508 148.633 Q 747.285 148.32 749.173 147.614 A 29.092 29.092 0 0 0 752.539 146.094 A 175.176 175.176 0 0 1 754.07 138.035 Q 755.407 131.822 757.079 126.525 A 84.556 84.556 0 0 1 760.645 117.09 A 130.88 130.88 0 0 1 763.285 111.59 Q 765.225 107.792 767.191 104.639 A 60.674 60.674 0 0 1 771.191 98.926 Q 774.716 94.504 777.905 91.806 A 24.441 24.441 0 0 1 781.152 89.453 Q 784.702 87.339 786.441 86.859 A 3.348 3.348 0 0 1 787.305 86.719 A 7.065 7.065 0 0 1 788.285 86.784 Q 789.575 86.965 790.508 87.645 A 4.893 4.893 0 0 1 791.992 89.453 Q 793.103 91.675 792.538 95.444 A 23.86 23.86 0 0 1 792.187 97.266 A 347.999 347.999 0 0 1 791.905 98.443 Q 791.019 102.109 789.844 106.641 A 871.93 871.93 0 0 0 787.109 117.481 A 160.407 160.407 0 0 0 786.775 118.868 A 144.455 144.455 0 0 0 784.863 128.321 A 80.504 80.504 0 0 0 784.633 129.781 Q 784.315 131.936 784.153 133.882 A 46.028 46.028 0 0 0 783.984 137.696 A 22.342 22.342 0 0 0 784.029 139.126 Q 784.123 140.593 784.417 141.846 A 11.117 11.117 0 0 0 785.352 144.434 A 13.356 13.356 0 0 0 785.73 145.115 A 11.177 11.177 0 0 0 788.965 148.633 A 13.667 13.667 0 0 0 793.848 150.782 A 24.685 24.685 0 0 0 799.219 151.367 Q 807.422 151.367 815.039 146.485 A 68.605 68.605 0 0 0 819.024 143.725 A 77.74 77.74 0 0 0 829.395 134.375 Q 836.133 127.149 841.797 118.848 A 315.465 315.465 0 0 0 842.541 117.752 Q 845.12 113.939 847.319 110.442 A 186.698 186.698 0 0 0 851.367 103.711 Q 852.539 101.367 852.441 99.805 Q 852.344 98.242 851.465 97.559 A 2.481 2.481 0 0 0 850.858 97.21 Q 850.345 97.005 849.729 97.03 A 3.697 3.697 0 0 0 849.316 97.071 A 2.985 2.985 0 0 0 848.569 97.291 Q 848.095 97.499 847.636 97.877 A 6.227 6.227 0 0 0 846.875 98.633 A 120.625 120.625 0 0 0 846.157 99.529 Q 843.04 103.456 838.672 109.571 Q 833.789 116.407 828.223 122.852 A 98.823 98.823 0 0 1 824.361 127.075 A 81.53 81.53 0 0 1 816.797 133.985 Q 813.364 136.731 810.266 137.868 A 12.201 12.201 0 0 1 806.055 138.672 Q 800.304 138.672 801.663 130.405 A 28.52 28.52 0 0 1 801.953 128.907 L 808.594 102.539 Q 809.766 97.266 810.254 91.602 A 40.329 40.329 0 0 0 810.406 88.138 Q 810.406 84.412 809.668 81.055 A 20.804 20.804 0 0 0 808.669 77.772 A 15.624 15.624 0 0 0 805.762 73.047 Q 803.881 70.972 800.924 70.275 A 14.234 14.234 0 0 0 797.656 69.922 A 19.096 19.096 0 0 0 794.006 70.277 A 22.14 22.14 0 0 0 788.672 72.071 Q 784.18 74.219 779.98 77.539 A 61.777 61.777 0 0 0 779.457 77.958 A 66.89 66.89 0 0 0 771.973 85.059 A 140.791 140.791 0 0 0 770.111 87.152 A 122.152 122.152 0 0 0 765.039 93.36 A 60.222 60.222 0 0 0 765.066 93.14 Q 765.479 89.739 765.479 86.493 A 49.896 49.896 0 0 0 765.43 84.278 A 33.578 33.578 0 0 0 765.401 83.732 Q 765.155 79.681 763.965 76.66 Q 762.695 73.438 760.449 71.485 A 7.678 7.678 0 0 0 757.666 69.931 A 9.314 9.314 0 0 0 754.883 69.532 A 19.452 19.452 0 0 0 751.373 69.854 A 22.913 22.913 0 0 0 746.191 71.485 A 38.031 38.031 0 0 0 742.909 73.142 A 45.546 45.546 0 0 0 737.5 76.758 A 80.642 80.642 0 0 0 735.358 78.473 A 92.128 92.128 0 0 0 729.004 84.278 A 102.748 102.748 0 0 0 721.094 93.164 A 2685.89 2685.89 0 0 0 721.783 90.487 Q 722.839 86.377 723.438 83.985 Q 725.136 75.491 721.584 73.713 A 4.974 4.974 0 0 0 719.336 73.242 Q 718.439 73.242 717.289 73.495 A 17.519 17.519 0 0 0 716.016 73.828 A 40.364 40.364 0 0 0 715.675 73.915 Q 714.602 74.193 713.123 74.634 A 140.667 140.667 0 0 0 711.914 75 A 30.998 30.998 0 0 0 710.681 75.409 Q 709.618 75.786 708.435 76.282 A 61.093 61.093 0 0 0 706.055 77.344 Q 706.387 78.506 706.366 80.162 A 17.129 17.129 0 0 1 706.348 80.762 A 29.576 29.576 0 0 1 706.319 81.276 A 32.341 32.341 0 0 1 705.859 84.961 A 72.862 72.862 0 0 1 705.652 86.145 A 83.743 83.743 0 0 1 704.883 89.844 L 702.111 101.328 A 220.951 220.951 0 0 1 701.343 102.314 Q 700.969 102.793 700.543 103.333 A 539.471 539.471 0 0 1 699.316 104.883 A 529.713 529.713 0 0 0 698.561 105.836 Q 697.408 107.295 696.134 108.927 A 904.932 904.932 0 0 0 693.359 112.5 A 295.131 295.131 0 0 1 691.669 114.667 A 340.112 340.112 0 0 1 686.23 121.387 Q 682.422 125.977 678.906 129.785 A 79.657 79.657 0 0 1 677.925 130.83 Q 676.465 132.355 675.075 133.638 A 45.298 45.298 0 0 1 672.266 136.035 Q 670.111 137.719 668.514 138.241 A 4.29 4.29 0 0 1 667.188 138.477 A 9.048 9.048 0 0 1 666.385 138.443 Q 664.617 138.285 663.574 137.403 A 5.73 5.73 0 0 1 662.549 136.267 A 6.742 6.742 0 0 1 661.719 134.571 A 12.815 12.815 0 0 1 661.387 133.385 A 14.866 14.866 0 0 1 661.035 130.762 A 28.069 28.069 0 0 1 661.003 129.427 Q 661.003 128.125 661.133 126.953 L 662.109 122.071 L 662.793 118.653 L 663.379 115.723 A 135.306 135.306 0 0 1 663.696 114.185 A 178.986 178.986 0 0 1 664.062 112.5 A 2742.669 2742.669 0 0 0 664.466 110.642 Q 665.672 105.077 666.553 100.891 A 895.904 895.904 0 0 0 667.188 97.852 A 581.517 581.517 0 0 0 667.705 95.326 Q 668.497 91.41 668.945 88.867 A 96.077 96.077 0 0 0 669.028 88.392 Q 669.531 85.454 669.531 84.278 A 14.43 14.43 0 0 0 669.528 83.971 Q 669.512 83.23 669.417 82.849 A 1.148 1.148 0 0 0 669.336 82.617 A 0.839 0.839 0 0 0 669.279 82.592 Q 668.963 82.462 668.249 82.431 A 11.196 11.196 0 0 0 667.773 82.422 Q 666.797 82.422 664.941 82.617 A 28.656 28.656 0 0 0 663.832 82.758 Q 662.32 82.977 660.352 83.399 Q 664.453 77.149 663.574 73.34 A 12.048 12.048 0 0 0 662.998 71.5 A 8.754 8.754 0 0 0 659.961 67.578 A 16.595 16.595 0 0 0 658.517 66.746 Q 655.559 65.23 651.367 64.453 A 10.641 10.641 0 0 0 650.445 64.414 Q 646.191 64.414 640.039 67.578 Q 633.203 71.094 626.172 78.028 A 76.724 76.724 0 0 0 620.225 84.637 A 95.688 95.688 0 0 0 613.184 94.727 A 67.943 67.943 0 0 0 611.316 97.989 A 73.559 73.559 0 0 0 605.184 113.589 A 185.691 185.691 0 0 1 604.883 113.965 A 195.397 195.397 0 0 1 603.088 116.175 A 223.691 223.691 0 0 1 597.266 122.949 Q 593.164 127.539 588.965 131.348 A 63.853 63.853 0 0 1 585.071 134.618 A 47.991 47.991 0 0 1 580.762 137.598 A 22.447 22.447 0 0 1 579.103 138.519 Q 577.746 139.197 576.474 139.572 A 10.72 10.72 0 0 1 573.438 140.039 A 24.952 24.952 0 0 1 573.178 140.038 Q 568.917 139.994 567.969 138.477 A 7.393 7.393 0 0 1 567.558 137.723 Q 567.219 137.007 566.975 136.134 A 14.963 14.963 0 0 1 566.602 134.375 A 9.962 9.962 0 0 1 566.553 133.383 Q 566.553 129.859 568.945 125.586 A 118.633 118.633 0 0 1 571.338 121.501 A 93.352 93.352 0 0 1 574.414 116.797 A 214.968 214.968 0 0 0 574.987 115.996 Q 576.974 113.204 578.683 110.611 A 132.257 132.257 0 0 0 582.031 105.274 Q 584.663 100.833 584.663 96.669 A 13.012 13.012 0 0 0 584.57 95.117 A 30.497 30.497 0 0 0 584.57 95.108 Q 584.374 92.768 583.691 89.942 Q 583.008 87.11 581.641 84.668 Q 580.273 82.227 578.125 80.567 A 7.707 7.707 0 0 0 575.071 79.16 A 10.92 10.92 0 0 0 572.656 78.907 Q 569.922 78.907 568.652 79.297 A 6.057 6.057 0 0 1 567.867 79.474 Q 567.009 79.615 565.704 79.663 A 39.63 39.63 0 0 1 564.258 79.688 Q 562.747 79.688 561.816 79.446 A 3.489 3.489 0 0 1 561.133 79.199 Q 560.492 78.879 560.019 78.601 A 9.549 9.549 0 0 1 559.57 78.321 A 18.759 18.759 0 0 0 562.5 71.289 Q 563.281 67.383 562.891 64.844 Q 562.5 61.133 560.254 57.617 A 6.928 6.928 0 0 0 558.375 55.648 Q 557.102 54.757 555.36 54.38 A 13.333 13.333 0 0 0 552.539 54.102 Q 549.609 54.102 546.484 56.836 Q 543.359 59.571 540.82 63.379 A 39.746 39.746 0 0 0 536.719 71.289 A 25.028 25.028 0 0 0 536.046 73.289 Q 535.256 76.042 535.547 77.93 Q 535.834 80.082 536.331 81.127 A 2.601 2.601 0 0 0 536.719 81.739 Q 537.305 82.398 538.66 83.661 A 106.869 106.869 0 0 0 539.648 84.571 Q 538.77 86.182 537.122 89.276 A 1681.435 1681.435 0 0 0 535.938 91.504 A 363.047 363.047 0 0 0 535.773 91.814 Q 534.538 94.147 533.189 96.776 A 602.33 602.33 0 0 0 530.371 102.344 A 2275.541 2275.541 0 0 0 527.271 108.57 A 2659.826 2659.826 0 0 0 527.037 109.041 A 76.951 76.951 0 0 1 526.331 109.809 A 113.469 113.469 0 0 1 524.414 111.817 A 160.371 160.371 0 0 1 520.02 116.138 A 211.281 211.281 0 0 1 515.039 120.703 A 198.917 198.917 0 0 1 503.906 129.883 A 116.149 116.149 0 0 1 498.854 133.552 A 91.513 91.513 0 0 1 492.578 137.5 A 14500.124 14500.124 0 0 1 496.191 121.485 Q 498.047 113.282 499.707 106.446 Q 501.367 99.61 502.441 94.629 Q 503.314 90.583 503.736 88.921 A 22.863 22.863 0 0 1 503.906 88.282 Q 504.883 84.571 505.469 82.617 Q 505.835 81.397 506.201 80.443 A 17.36 17.36 0 0 1 506.641 79.395 A 94.407 94.407 0 0 1 506.787 79.079 A 85.705 85.705 0 0 1 507.813 76.953 A 51.337 51.337 0 0 0 508.109 76.35 Q 508.627 75.278 509.375 73.633 A 0.705 0.705 0 0 0 509.353 73.46 Q 509.213 72.908 508.197 72.264 A 9.781 9.781 0 0 0 507.52 71.875 A 7.176 7.176 0 0 0 506.934 71.6 Q 506.025 71.222 504.932 71.048 A 12.719 12.719 0 0 0 502.93 70.899 Q 500.488 70.899 498.657 71.509 A 7.661 7.661 0 0 0 495.605 73.34 Q 493.813 75.133 492.283 79.191 A 45.948 45.948 0 0 0 491.211 82.422 A 8.823 8.823 0 0 0 490.869 83.472 A 11.928 11.928 0 0 0 490.625 84.668 A 14.843 14.843 0 0 1 490.039 87.11 A 47.734 47.734 0 0 0 489.307 83.863 A 62.349 62.349 0 0 0 488.281 80.371 A 27.656 27.656 0 0 0 484.961 73.535 Q 482.813 70.313 479.688 68.164 A 11.781 11.781 0 0 0 476.153 66.52 A 14.413 14.413 0 0 0 472.266 66.016 A 26.692 26.692 0 0 0 455.664 71.68 A 51.075 51.075 0 0 0 443.164 85.547 A 71.004 71.004 0 0 0 435.352 103.125 A 87.961 87.961 0 0 0 434.555 106.039 A 68.404 68.404 0 0 0 433.27 112.16 A 904.932 904.932 0 0 0 433.008 112.5 A 295.131 295.131 0 0 1 431.317 114.667 A 340.112 340.112 0 0 1 425.879 121.387 Q 422.07 125.977 418.555 129.785 A 79.657 79.657 0 0 1 417.574 130.83 Q 416.114 132.355 414.723 133.638 A 45.298 45.298 0 0 1 411.914 136.035 Q 409.76 137.719 408.162 138.241 A 4.29 4.29 0 0 1 406.836 138.477 A 9.048 9.048 0 0 1 406.033 138.443 Q 404.265 138.285 403.223 137.403 A 5.73 5.73 0 0 1 402.198 136.267 A 6.742 6.742 0 0 1 401.367 134.571 A 12.815 12.815 0 0 1 401.035 133.385 A 14.866 14.866 0 0 1 400.684 130.762 A 28.069 28.069 0 0 1 400.651 129.427 Q 400.651 128.125 400.781 126.953 L 401.758 122.071 L 402.441 118.653 L 403.027 115.723 A 135.306 135.306 0 0 1 403.345 114.185 A 178.986 178.986 0 0 1 403.711 112.5 A 2742.669 2742.669 0 0 0 404.114 110.642 Q 405.32 105.077 406.201 100.891 A 895.904 895.904 0 0 0 406.836 97.852 A 581.517 581.517 0 0 0 407.353 95.326 Q 408.145 91.41 408.594 88.867 A 96.077 96.077 0 0 0 408.676 88.392 Q 409.18 85.454 409.18 84.278 A 14.43 14.43 0 0 0 409.177 83.971 Q 409.161 83.23 409.065 82.849 A 1.148 1.148 0 0 0 408.984 82.617 A 0.839 0.839 0 0 0 408.928 82.592 Q 408.611 82.462 407.897 82.431 A 11.196 11.196 0 0 0 407.422 82.422 Q 406.445 82.422 404.59 82.617 A 28.656 28.656 0 0 0 403.481 82.758 Q 401.968 82.977 400 83.399 Q 404.102 77.149 403.223 73.34 A 12.048 12.048 0 0 0 402.646 71.5 A 8.754 8.754 0 0 0 399.609 67.578 A 16.595 16.595 0 0 0 398.165 66.746 Q 395.208 65.23 391.016 64.453 A 10.641 10.641 0 0 0 390.094 64.414 Q 385.84 64.414 379.688 67.578 Q 372.852 71.094 365.82 78.028 A 76.724 76.724 0 0 0 359.874 84.637 A 95.688 95.688 0 0 0 352.832 94.727 A 67.943 67.943 0 0 0 350.964 97.989 A 73.559 73.559 0 0 0 345.127 112.514 A 192.919 192.919 0 0 1 344.293 113.489 A 222.23 222.23 0 0 1 337.793 120.703 A 186.6 186.6 0 0 1 335.433 123.169 A 161.455 161.455 0 0 1 328.711 129.688 A 71.216 71.216 0 0 1 328.43 129.943 Q 324.087 133.866 320.02 136.231 Q 316.4 138.335 313.723 138.335 A 6.293 6.293 0 0 1 312.891 138.282 A 12.706 12.706 0 0 1 311.54 138.14 A 9.846 9.846 0 0 1 306.641 135.938 Q 305.161 134.593 304.006 132.091 A 24.334 24.334 0 0 1 303.027 129.59 A 12.605 12.605 0 0 1 302.75 128.629 Q 301.685 124.318 302.734 116.797 Q 307.813 105.078 311.914 94.727 Q 314.221 88.904 316.158 83.823 A 597.389 597.389 0 0 0 318.945 76.367 A 625.649 625.649 0 0 0 322.07 67.53 A 483.158 483.158 0 0 0 324.805 59.375 A 63.676 63.676 0 0 0 325.615 56.926 A 52.691 52.691 0 0 0 326.66 53.028 Q 327.344 50 328.125 46.875 A 49.414 49.414 0 0 0 328.514 46.874 A 45.001 45.001 0 0 0 331.152 46.778 Q 332.617 46.68 333.789 46.68 A 185.69 185.69 0 0 1 336.171 46.695 Q 338.725 46.728 340.991 46.833 A 101.746 101.746 0 0 1 344.727 47.071 A 368.826 368.826 0 0 1 347.532 47.315 Q 348.873 47.437 350.09 47.559 A 200.261 200.261 0 0 1 352.832 47.852 A 70.338 70.338 0 0 1 354.381 48.046 Q 355.626 48.216 356.723 48.416 A 36.724 36.724 0 0 1 358.691 48.828 Q 359.988 49.14 361.148 49.341 A 27.232 27.232 0 0 0 363.086 49.61 A 5.354 5.354 0 0 0 363.223 49.635 Q 365.094 49.959 366.602 48.828 A 7.991 7.991 0 0 0 366.99 48.518 A 6.576 6.576 0 0 0 368.848 45.996 A 8.642 8.642 0 0 0 369.163 45.096 Q 369.505 43.909 369.434 42.774 A 2.972 2.972 0 0 0 369.34 42.182 Q 369.056 41.131 367.969 40.821 A 14.742 14.742 0 0 1 367.919 40.806 Q 366.9 40.511 365.149 39.85 A 103.442 103.442 0 0 1 363.867 39.356 A 35.331 35.331 0 0 0 361.78 38.617 Q 360.632 38.248 359.277 37.879 A 87.238 87.238 0 0 0 356.641 37.207 Q 353.833 36.536 350.301 35.941 A 155.648 155.648 0 0 0 345.801 35.254 Q 339.453 34.375 331.25 34.375 Q 333.203 24.414 333.398 17.969 A 73.742 73.742 0 0 0 333.423 16.929 Q 333.512 11.393 332.617 9.961 A 3.391 3.391 0 0 0 331.866 9.297 Q 331.371 8.973 330.721 8.765 A 7.302 7.302 0 0 0 329.492 8.496 A 16.246 16.246 0 0 0 327.295 8.35 A 18.495 18.495 0 0 0 325 8.496 A 25.46 25.46 0 0 0 323.989 8.643 A 22.159 22.159 0 0 0 320.605 9.473 A 11.124 11.124 0 0 0 320.071 9.666 Q 319.081 10.053 318.511 10.524 A 2.408 2.408 0 0 0 317.969 11.133 A 15.872 15.872 0 0 0 317.042 12.618 Q 315.969 14.541 314.764 17.597 A 92.944 92.944 0 0 0 313.574 20.801 A 160.658 160.658 0 0 0 312.886 22.799 Q 310.776 29.053 308.594 37.11 A 111.837 111.837 0 0 1 301.855 38.086 A 107.223 107.223 0 0 1 300.128 38.269 A 120.418 120.418 0 0 1 294.727 38.672 A 111.467 111.467 0 0 1 294.221 38.69 Q 291.654 38.778 289.29 38.738 A 76.897 76.897 0 0 1 285.352 38.574 A 243.88 243.88 0 0 1 281.201 38.257 A 196.715 196.715 0 0 1 277.344 37.891 A 3.057 3.057 0 0 0 276.438 38.037 Q 276.021 38.167 275.572 38.41 A 7.627 7.627 0 0 0 274.707 38.965 A 10.039 10.039 0 0 0 272.266 41.504 Q 271.289 42.969 271.094 44.434 A 2.609 2.609 0 0 0 271.089 44.474 Q 270.92 45.91 272.461 46.68 A 18.683 18.683 0 0 0 273.241 47.046 Q 275.062 47.854 277.855 48.696 A 85.713 85.713 0 0 0 280.762 49.512 Q 286.328 50.977 292.578 50.977 Q 295.313 50.977 298.633 50.586 L 305.273 49.805 A 560.175 560.175 0 0 0 304.594 52.651 A 618.897 618.897 0 0 0 300.098 73.34 A 1627.073 1627.073 0 0 0 297.778 85.157 A 1319.112 1319.112 0 0 0 295.703 96.192 A 716.925 716.925 0 0 0 295.169 99.135 Q 294.392 103.475 293.753 107.363 A 400.674 400.674 0 0 0 292.578 114.942 A 445.623 445.623 0 0 0 292.193 117.664 Q 291.613 121.853 291.363 124.366 A 50.045 50.045 0 0 0 291.211 126.172 Q 290.82 129.883 291.797 134.278 Q 292.773 138.672 295.215 142.383 A 18.462 18.462 0 0 0 297.706 145.406 A 21.941 21.941 0 0 0 301.953 148.633 Q 306.25 151.172 312.695 151.172 Q 315.994 151.172 320.452 148.539 A 40.572 40.572 0 0 0 323.828 146.289 A 73.434 73.434 0 0 0 324.712 145.629 Q 330.936 140.907 337.5 133.887 Z M 190.625 97.657 L 188.477 106.25 Q 187.805 109.07 186.903 112.582 A 586.059 586.059 0 0 1 186.035 115.918 A 199.324 199.324 0 0 1 184.399 121.753 A 266.039 266.039 0 0 1 182.422 128.125 A 30.346 30.346 0 0 0 181.815 130.794 Q 181.354 133.389 181.536 135.469 A 12.648 12.648 0 0 0 181.543 135.547 A 4.074 4.074 0 0 0 181.908 136.951 Q 182.725 138.637 185.247 138.671 A 7.749 7.749 0 0 0 185.352 138.672 Q 188.335 138.672 192.655 135.577 A 37.493 37.493 0 0 0 194.238 134.375 A 83.37 83.37 0 0 0 200.312 128.985 A 107.757 107.757 0 0 0 205.078 124.024 A 204.738 204.738 0 0 0 215.43 111.621 Q 219.454 106.39 221.887 102.816 A 82.051 82.051 0 0 0 222.852 101.367 A 18.243 18.243 0 0 1 223.825 100.078 A 11.324 11.324 0 0 1 224.699 99.133 A 329.552 329.552 0 0 0 226.758 95.996 A 327.49 327.49 0 0 1 228.937 92.679 Q 229.978 91.116 230.928 89.734 A 196.114 196.114 0 0 1 231.055 89.551 Q 232.92 86.847 233.182 86.191 A 1.055 1.055 0 0 0 233.203 86.133 A 2.83 2.83 0 0 0 233.284 85.527 Q 233.325 84.105 232.129 82.032 Q 230.884 79.873 231.403 77.151 A 10.306 10.306 0 0 1 231.641 76.172 Q 232.418 73.452 235.128 69.862 A 40.108 40.108 0 0 1 235.156 69.824 Q 237.891 66.211 241.602 63.282 A 30.781 30.781 0 0 1 246.077 60.319 A 25.567 25.567 0 0 1 249.219 58.887 Q 253.125 57.422 256.25 58.985 A 19.938 19.938 0 0 1 258.416 60.514 A 14.555 14.555 0 0 1 260.352 62.403 A 6.153 6.153 0 0 1 261.101 63.501 Q 261.799 64.832 261.523 66.211 Q 261.151 67.143 260.422 68.609 A 68.094 68.094 0 0 1 260.352 68.75 A 20.366 20.366 0 0 1 259.722 69.905 Q 259.378 70.495 258.949 71.158 A 49.464 49.464 0 0 1 258.008 72.559 A 50.64 50.64 0 0 1 256.898 74.087 Q 255.53 75.904 253.516 78.321 A 61.373 61.373 0 0 0 254.329 83.127 A 48.301 48.301 0 0 0 255.176 86.524 A 145.365 145.365 0 0 0 255.968 89.17 Q 256.616 91.26 257.227 92.969 Q 258.398 96.289 259.766 99.024 A 385.6 385.6 0 0 0 262.991 105.326 A 424.579 424.579 0 0 0 263.477 106.25 A 107.774 107.774 0 0 1 266.595 112.67 A 98.062 98.062 0 0 1 266.992 113.574 A 78.946 78.946 0 0 1 268.408 117.066 A 59.878 59.878 0 0 1 269.531 120.313 Q 270.438 123.215 270.166 125.274 A 6.504 6.504 0 0 1 270.117 125.586 Q 269.537 128.872 266.757 133.498 A 48.922 48.922 0 0 1 266.699 133.594 A 50.301 50.301 0 0 1 261.802 140.321 A 59.184 59.184 0 0 1 259.668 142.676 A 43.22 43.22 0 0 1 250.098 150.196 Q 244.727 153.321 238.867 153.321 A 13.56 13.56 0 0 1 232.456 151.676 A 17.152 17.152 0 0 1 230.957 150.782 A 27.108 27.108 0 0 1 225.016 145.458 A 25.473 25.473 0 0 1 224.512 144.824 Q 221.875 141.407 220.605 138.086 A 13.706 13.706 0 0 1 220.212 136.908 Q 219.705 135.109 219.991 133.86 A 3.224 3.224 0 0 1 220.313 133.008 Q 221.1 131.433 221.799 130.3 A 17.836 17.836 0 0 1 222.461 129.297 A 12.94 12.94 0 0 1 223.248 128.311 Q 223.678 127.818 224.214 127.284 A 31.437 31.437 0 0 1 225.391 126.172 A 30.934 30.934 0 0 1 226.031 125.705 Q 226.611 125.293 227.344 124.805 A 8.422 8.422 0 0 1 228.03 124.439 Q 228.814 124.063 229.919 123.687 A 27.038 27.038 0 0 1 230.078 123.633 L 234.18 122.266 A 151.224 151.224 0 0 0 235.362 125.793 Q 236.621 129.389 237.695 131.739 A 315.483 315.483 0 0 0 238.44 133.356 Q 239.17 134.93 239.744 136.114 A 92.68 92.68 0 0 0 240.234 137.11 Q 241.191 138.863 242.017 139.706 A 4.121 4.121 0 0 0 242.383 140.039 A 4.388 4.388 0 0 0 243.77 140.637 Q 244.51 140.821 245.41 140.821 A 9.3 9.3 0 0 0 248.541 140.264 A 10.88 10.88 0 0 0 249.121 140.039 A 14.033 14.033 0 0 0 252.324 138.142 A 15.819 15.819 0 0 0 252.637 137.891 A 7.943 7.943 0 0 0 255.003 134.575 A 9.438 9.438 0 0 0 255.078 134.375 Q 255.772 132.466 255.233 129.091 A 25.873 25.873 0 0 0 255.078 128.223 A 51.49 51.49 0 0 0 253.961 123.668 A 67.406 67.406 0 0 0 252.637 119.629 A 208.647 208.647 0 0 0 249.023 110.352 A 185.874 185.874 0 0 1 247.217 105.86 A 136.825 136.825 0 0 1 245.703 101.758 A 80.912 80.912 0 0 1 244.629 98.926 A 62.512 62.512 0 0 1 243.75 96.289 Q 242.969 94.141 242.285 92.09 A 59.816 59.816 0 0 0 241.962 91.146 Q 241.514 89.873 241.224 89.284 A 5.179 5.179 0 0 0 241.211 89.258 A 51.615 51.615 0 0 1 240.631 90.161 Q 239.73 91.537 238.17 93.792 A 383.879 383.879 0 0 1 237.793 94.336 A 258.198 258.198 0 0 1 235.254 97.925 A 301.468 301.468 0 0 1 232.52 101.66 A 354.514 354.514 0 0 1 229.761 105.323 A 284.987 284.987 0 0 1 227.148 108.692 A 638.631 638.631 0 0 1 226.044 110.09 Q 224.38 112.189 223.633 113.086 A 9.835 9.835 0 0 1 223.542 113.188 A 109.671 109.671 0 0 1 220.63 117.53 A 145.312 145.312 0 0 1 216.992 122.461 A 221.578 221.578 0 0 1 209.708 131.423 A 245.096 245.096 0 0 1 208.594 132.715 A 91.802 91.802 0 0 1 200.131 141.294 A 83.989 83.989 0 0 1 199.219 142.09 A 64.417 64.417 0 0 1 193.907 146.216 A 50.293 50.293 0 0 1 189.551 148.926 Q 185.21 151.318 181.27 151.54 A 14.247 14.247 0 0 1 180.469 151.563 Q 176.056 151.563 172.868 149.961 A 12.811 12.811 0 0 1 172.754 149.903 A 14.833 14.833 0 0 1 168.997 147.187 A 13.511 13.511 0 0 1 167.578 145.508 A 14.506 14.506 0 0 1 165.256 140.268 A 17.277 17.277 0 0 1 165.039 139.16 A 17.333 17.333 0 0 1 164.819 136.382 Q 164.819 134.009 165.43 131.446 A 56.992 56.992 0 0 1 165.872 129.555 Q 166.443 127.277 167.383 124.121 A 399.147 399.147 0 0 0 168.774 119.336 A 500.149 500.149 0 0 0 170.215 114.16 Q 171.68 108.789 172.949 103.418 Q 174.134 98.404 174.554 94.241 A 50.519 50.519 0 0 0 174.609 93.653 A 33.785 33.785 0 0 0 174.718 91.974 Q 174.834 88.985 174.323 86.832 A 11.663 11.663 0 0 0 174.219 86.426 A 5.297 5.297 0 0 0 173.709 85.17 Q 172.893 83.766 171.301 83.613 A 4.193 4.193 0 0 0 170.898 83.594 Q 167.859 83.594 164.635 85.534 A 18.305 18.305 0 0 0 164.453 85.645 Q 161.341 87.567 158.143 90.777 A 49.486 49.486 0 0 0 157.715 91.211 A 73.822 73.822 0 0 0 153.656 95.765 A 93.073 93.073 0 0 0 150.879 99.317 A 270.941 270.941 0 0 0 144.141 108.789 Q 142.932 113.355 142.001 117.136 A 321.758 321.758 0 0 0 141.211 120.41 Q 140.077 125.23 139.217 129.136 A 442.5 442.5 0 0 0 139.16 129.395 A 250.984 250.984 0 0 1 138.41 132.711 Q 138.057 134.22 137.722 135.555 A 139.538 139.538 0 0 1 137.5 136.426 A 150.832 150.832 0 0 0 136.518 140.45 A 127.433 127.433 0 0 0 136.133 142.188 A 4.553 4.553 0 0 1 135.369 143.631 Q 134.454 144.833 132.617 145.996 A 30.796 30.796 0 0 1 126.367 149.024 A 25.23 25.23 0 0 1 124.094 149.715 Q 122.951 150 121.936 150.116 A 11.735 11.735 0 0 1 120.605 150.196 A 5.073 5.073 0 0 1 119.89 150.15 Q 118.227 149.911 118.555 148.438 Q 118.744 147.301 119.76 143.411 A 321.955 321.955 0 0 1 119.824 143.164 A 6467.064 6467.064 0 0 1 120.685 139.882 Q 121.448 136.975 122.363 133.496 A 909.703 909.703 0 0 0 123.853 127.759 A 1077.078 1077.078 0 0 0 125.391 121.68 A 1629.456 1629.456 0 0 0 126.904 115.576 A 1401.673 1401.673 0 0 0 128.32 109.766 Q 129.297 105.274 130.469 99.805 Q 131.445 95.117 132.91 88.867 A 456.911 456.911 0 0 1 134.497 82.324 A 597.028 597.028 0 0 1 136.328 75.196 A 13.184 13.184 0 0 1 138.165 73.868 A 11.264 11.264 0 0 1 139.16 73.34 A 16.749 16.749 0 0 1 142.187 72.266 A 13.659 13.659 0 0 1 145.289 71.511 A 15.148 15.148 0 0 1 145.508 71.485 A 25.171 25.171 0 0 1 148.633 71.68 A 15.396 15.396 0 0 1 150.559 72.087 A 18.255 18.255 0 0 1 151.465 72.364 Q 152.93 72.852 154.102 73.828 A 24.92 24.92 0 0 0 153.716 74.788 Q 153.271 75.959 152.734 77.637 Q 151.953 80.078 151.172 82.813 A 69.151 69.151 0 0 1 149.78 87.61 A 79.048 79.048 0 0 1 149.219 89.258 A 84.82 84.82 0 0 1 153.033 84.378 A 100.055 100.055 0 0 1 154.98 82.129 A 51.385 51.385 0 0 1 162.012 75.586 Q 165.82 72.657 170.117 70.801 Q 174.414 68.946 178.906 68.946 A 10.947 10.947 0 0 1 185.547 71.094 A 13.42 13.42 0 0 1 189.102 75.04 A 17.133 17.133 0 0 1 190.137 77.051 A 22.007 22.007 0 0 1 191.455 81.226 Q 191.943 83.496 192.09 86.133 A 27.519 27.519 0 0 1 192.132 87.66 Q 192.132 90.26 191.658 93.087 A 43.351 43.351 0 0 1 190.625 97.657 Z M 61.495 91.179 A 27.336 27.336 0 0 0 65.82 97.266 A 12.587 12.587 0 0 0 66.014 97.216 Q 67.45 96.833 68.457 96.192 A 41.176 41.176 0 0 0 68.753 96.001 Q 69.189 95.719 69.573 95.454 A 23.628 23.628 0 0 0 70.313 94.922 L 71.68 93.555 Q 72.07 92.774 72.656 91.797 A 11.297 11.297 0 0 0 73.015 90.878 Q 73.533 89.37 73.828 87.305 Q 70.857 80.664 70.857 72.616 A 44.997 44.997 0 0 1 70.898 70.703 A 134.132 134.132 0 0 1 71.167 66.175 A 115.965 115.965 0 0 1 72.852 53.321 A 134.027 134.027 0 0 1 73.639 49.718 A 150.38 150.38 0 0 1 78.32 33.789 A 45.288 45.288 0 0 1 83.301 24.317 Q 86.328 19.922 89.453 16.797 A 67.323 67.323 0 0 1 91.42 14.904 Q 92.361 14.036 93.218 13.326 A 28.666 28.666 0 0 1 94.922 12.012 A 26.179 26.179 0 0 1 95.676 11.496 Q 97.2 10.495 97.745 10.528 A 0.418 0.418 0 0 1 97.852 10.547 A 0.751 0.751 0 0 1 98.139 10.76 Q 98.812 11.538 98.73 14.649 Q 98.669 16.997 98.372 20.049 A 138.519 138.519 0 0 1 97.949 23.828 A 163.756 163.756 0 0 1 97.368 28.026 A 198.556 198.556 0 0 1 96.094 35.449 A 429.287 429.287 0 0 1 94.922 41.382 A 343.966 343.966 0 0 1 93.75 46.875 Q 90.82 59.766 86.816 75 A 8602.826 8602.826 0 0 1 78.906 104.883 A 1078.072 1078.072 0 0 0 73.682 105.298 A 1271.207 1271.207 0 0 0 68.164 105.762 A 279.868 279.868 0 0 0 64.932 106.06 A 326.769 326.769 0 0 0 56.25 107.032 Q 47.791 108.24 40.691 110.066 A 95.132 95.132 0 0 0 30.469 113.282 Q 24.426 115.589 19.651 118.297 A 51.176 51.176 0 0 0 12.988 122.754 A 51.962 51.962 0 0 0 12.186 123.407 Q 9.422 125.701 7.308 128.118 A 30.434 30.434 0 0 0 3.125 134.18 A 30.777 30.777 0 0 0 1.346 138.319 A 23.884 23.884 0 0 0 0 146.094 Q 0 149.414 2.344 155.567 A 37.569 37.569 0 0 0 5.633 162.104 A 51.007 51.007 0 0 0 9.863 167.871 A 41.63 41.63 0 0 0 15.611 173.465 A 53.551 53.551 0 0 0 23.34 178.614 Q 28.27 181.34 34.545 182.447 A 53.006 53.006 0 0 0 43.75 183.203 A 22.434 22.434 0 0 0 52.951 181.23 A 28.584 28.584 0 0 0 59.57 177.051 A 58.575 58.575 0 0 0 66.806 169.846 A 78.411 78.411 0 0 0 73.242 161.035 A 135.119 135.119 0 0 0 77.779 153.308 A 163.456 163.456 0 0 0 84.668 138.965 Q 89.844 126.758 93.945 114.649 Q 97.485 114.405 100.453 114.313 A 109.129 109.129 0 0 1 103.809 114.258 L 109.57 114.258 Q 112.305 114.258 115.137 113.867 Q 117.969 113.477 119.531 111.133 A 12.919 12.919 0 0 0 119.865 110.56 Q 120.717 109.001 120.605 108.028 A 1.538 1.538 0 0 0 120.41 107.422 A 3.369 3.369 0 0 0 120.407 107.417 Q 120.034 106.78 119.458 106.432 A 2.896 2.896 0 0 0 118.359 106.055 A 49.381 49.381 0 0 0 117.659 105.974 Q 116.308 105.825 113.593 105.571 A 859.568 859.568 0 0 0 111.426 105.371 A 106.647 106.647 0 0 0 110.255 105.272 Q 105.128 104.862 97.266 104.688 Q 100.195 94.727 102.344 86.524 A 670.33 670.33 0 0 0 102.786 84.826 Q 104.104 79.738 105.017 75.867 A 225.454 225.454 0 0 0 105.664 73.047 A 439.759 439.759 0 0 0 107.617 63.916 A 319.96 319.96 0 0 0 109.18 55.664 A 229.792 229.792 0 0 0 110.143 49.71 A 185.453 185.453 0 0 0 111.23 41.016 A 283.731 283.731 0 0 0 111.688 35.999 A 235.419 235.419 0 0 0 112.207 28.125 Q 112.5 22.071 112.5 15.821 A 27.384 27.384 0 0 0 112.468 14.562 Q 112.404 13.166 112.207 11.328 Q 111.914 8.594 110.742 6.055 A 11.524 11.524 0 0 0 107.324 1.758 Q 105.885 0.632 103.845 0.227 A 12.74 12.74 0 0 0 101.367 0 A 32.518 32.518 0 0 0 92.514 1.268 A 42.907 42.907 0 0 0 84.473 4.492 Q 75.781 8.985 68.75 17.188 A 55.8 55.8 0 0 0 63.43 24.55 A 67.032 67.032 0 0 0 57.617 36.914 A 54.744 54.744 0 0 0 55.723 43.547 Q 54.304 50.012 54.304 57.186 A 76.716 76.716 0 0 0 54.492 62.5 A 120.362 120.362 0 0 0 54.834 66.065 A 104.129 104.129 0 0 0 56.445 76.172 A 65.501 65.501 0 0 0 56.755 77.59 A 72.024 72.024 0 0 0 59.863 87.598 A 34.235 34.235 0 0 0 61.495 91.179 Z M 63.477 151.758 A 59.236 59.236 0 0 0 64.762 148.845 Q 66.504 144.629 68.75 137.891 A 423.253 423.253 0 0 0 71.559 129.127 Q 73.413 123.133 75.391 116.211 A 230.23 230.23 0 0 0 56.055 119.434 Q 46.289 121.485 38.379 124.903 A 50.186 50.186 0 0 0 31.709 128.365 A 36.25 36.25 0 0 0 25.488 133.203 A 16.848 16.848 0 0 0 21.832 138.346 A 15.431 15.431 0 0 0 20.508 144.727 A 29.632 29.632 0 0 0 21.13 150.932 A 22.969 22.969 0 0 0 23.34 157.032 A 33.466 33.466 0 0 0 27.227 162.806 A 28.236 28.236 0 0 0 30.176 165.821 A 35.779 35.779 0 0 0 34.678 169.21 A 28.599 28.599 0 0 0 38.379 171.192 Q 41.112 172.399 43.307 172.821 A 11.704 11.704 0 0 0 45.508 173.047 A 7.819 7.819 0 0 0 49.483 171.937 A 10.866 10.866 0 0 0 51.074 170.801 A 26.897 26.897 0 0 0 54.441 167.342 A 32.71 32.71 0 0 0 55.957 165.332 A 55.476 55.476 0 0 0 60.001 158.515 A 60.616 60.616 0 0 0 60.059 158.399 A 339.4 339.4 0 0 1 61.787 154.987 Q 62.671 153.269 63.477 151.758 Z M 459.57 136.133 A 14.846 14.846 0 0 0 467.285 133.985 Q 470.898 131.836 473.828 129.004 A 38.95 38.95 0 0 0 476.815 125.787 A 31.275 31.275 0 0 0 478.711 123.242 A 129.14 129.14 0 0 0 479.626 121.851 Q 480.908 119.873 481.641 118.555 A 46.801 46.801 0 0 0 482.158 117.342 Q 482.758 115.882 483.496 113.867 A 44.364 44.364 0 0 0 484.742 109.934 A 37.658 37.658 0 0 0 485.156 108.203 A 24.521 24.521 0 0 0 485.517 106.101 Q 485.658 104.963 485.658 103.946 A 13.783 13.783 0 0 0 485.645 103.321 A 5.127 5.127 0 0 0 485.547 102.501 Q 485.258 101.131 484.18 100.977 Q 483.059 100.79 482.385 99.531 A 4.694 4.694 0 0 1 482.324 99.414 A 12.161 12.161 0 0 1 481.648 97.753 A 15.599 15.599 0 0 1 481.25 96.289 A 21.743 21.743 0 0 1 480.762 92.774 A 44.9 44.9 0 0 0 480.658 91.31 Q 480.579 90.418 480.469 89.649 Q 479.596 83.542 477.633 80.397 A 10.056 10.056 0 0 0 477.148 79.688 Q 474.805 76.563 471.875 76.563 A 12.557 12.557 0 0 0 465.463 78.367 A 17.926 17.926 0 0 0 462.598 80.469 A 33.854 33.854 0 0 0 457.843 85.736 A 44.699 44.699 0 0 0 454.785 90.528 A 57.891 57.891 0 0 0 449.992 101.967 A 65.55 65.55 0 0 0 449.414 104.004 A 58.876 58.876 0 0 0 447.783 112.461 A 48.328 48.328 0 0 0 447.461 117.969 A 46.844 46.844 0 0 0 447.732 123.172 Q 448.019 125.739 448.612 127.885 A 20.472 20.472 0 0 0 449.805 131.153 Q 451.972 135.759 458.483 136.105 A 20.477 20.477 0 0 0 459.57 136.133 Z M 389.264 113.285 A 828.798 828.798 0 0 0 388.477 116.407 A 2.194 2.194 0 0 1 388.451 116.519 Q 388.2 117.502 386.816 119.532 Q 385.992 120.74 384.921 122.072 A 59.958 59.958 0 0 1 383.105 124.219 A 41.351 41.351 0 0 1 382.169 125.242 A 46.556 46.556 0 0 1 378.027 129.102 A 36.665 36.665 0 0 1 375.903 130.736 A 29.522 29.522 0 0 1 372.363 132.91 A 15.565 15.565 0 0 1 370.428 133.756 A 12.092 12.092 0 0 1 366.797 134.473 A 6.63 6.63 0 0 1 366.56 134.477 Q 363.969 134.477 361.914 132.422 A 3.28 3.28 0 0 1 361.32 131.561 Q 360.633 130.185 360.352 127.442 A 25.626 25.626 0 0 1 360.283 126.649 Q 360.12 124.367 360.318 121.658 A 51.376 51.376 0 0 1 360.645 118.555 A 59.964 59.964 0 0 1 361.448 113.981 A 76.486 76.486 0 0 1 363.086 107.715 Q 364.844 101.953 367.773 96.875 Q 372.827 88.031 377.023 83.173 A 29.946 29.946 0 0 1 380.176 79.981 Q 385.547 75.391 387.695 77.149 A 3.198 3.198 0 0 1 387.98 77.608 Q 388.333 78.295 388.477 79.297 A 5.482 5.482 0 0 1 388.535 79.801 Q 388.591 80.576 388.486 81.641 A 20.43 20.43 0 0 1 388.379 82.52 Q 388.086 84.571 386.523 87.696 A 26.353 26.353 0 0 1 389.648 87.11 Q 390.626 86.987 391.374 86.789 A 7.103 7.103 0 0 0 392.188 86.524 Q 393.359 86.133 394.336 85.938 A 0.426 0.426 0 0 1 394.342 85.936 Q 395.041 85.772 394.711 88.377 A 24.295 24.295 0 0 1 394.629 88.965 A 94.393 94.393 0 0 1 394.579 89.29 Q 394.092 92.431 393.164 97.071 A 167.513 167.513 0 0 1 392.651 99.536 A 191.838 191.838 0 0 1 390.82 107.227 Q 389.966 110.523 389.264 113.285 Z M 649.615 113.285 A 828.798 828.798 0 0 0 648.828 116.407 A 2.194 2.194 0 0 1 648.803 116.519 Q 648.551 117.502 647.168 119.532 Q 646.344 120.74 645.273 122.072 A 59.958 59.958 0 0 1 643.457 124.219 A 41.351 41.351 0 0 1 642.52 125.242 A 46.556 46.556 0 0 1 638.379 129.102 A 36.665 36.665 0 0 1 636.255 130.736 A 29.522 29.522 0 0 1 632.715 132.91 A 15.565 15.565 0 0 1 630.779 133.756 A 12.092 12.092 0 0 1 627.148 134.473 A 6.63 6.63 0 0 1 626.912 134.477 Q 624.321 134.477 622.266 132.422 A 3.28 3.28 0 0 1 621.671 131.561 Q 620.985 130.185 620.703 127.442 A 25.626 25.626 0 0 1 620.634 126.649 Q 620.472 124.367 620.67 121.658 A 51.376 51.376 0 0 1 620.996 118.555 A 59.964 59.964 0 0 1 621.8 113.981 A 76.486 76.486 0 0 1 623.438 107.715 Q 625.195 101.953 628.125 96.875 Q 633.179 88.031 637.375 83.173 A 29.946 29.946 0 0 1 640.527 79.981 Q 645.898 75.391 648.047 77.149 A 3.198 3.198 0 0 1 648.332 77.608 Q 648.685 78.295 648.828 79.297 A 5.482 5.482 0 0 1 648.887 79.801 Q 648.943 80.576 648.838 81.641 A 20.43 20.43 0 0 1 648.73 82.52 Q 648.438 84.571 646.875 87.696 A 26.353 26.353 0 0 1 650 87.11 Q 650.977 86.987 651.725 86.789 A 7.103 7.103 0 0 0 652.539 86.524 Q 653.711 86.133 654.688 85.938 A 0.426 0.426 0 0 1 654.693 85.936 Q 655.392 85.772 655.063 88.377 A 24.295 24.295 0 0 1 654.98 88.965 A 94.393 94.393 0 0 1 654.931 89.29 Q 654.444 92.431 653.516 97.071 A 167.513 167.513 0 0 1 653.003 99.536 A 191.838 191.838 0 0 1 651.172 107.227 Q 650.317 110.523 649.615 113.285 Z M 455.749 223.316 A 16.753 16.753 0 0 0 456.934 220.996 A 76.008 76.008 0 0 0 458.488 216.985 Q 460.114 212.445 461.86 206.174 A 250.428 250.428 0 0 0 462.109 205.274 A 670.738 670.738 0 0 0 462.433 203.974 Q 462.798 202.501 463.293 200.483 A 2731.786 2731.786 0 0 0 463.77 198.535 A 631.77 631.77 0 0 1 464.784 194.447 Q 465.31 192.359 465.904 190.045 A 1081.466 1081.466 0 0 1 466.309 188.477 A 608.727 608.727 0 0 0 467.798 182.593 A 750.382 750.382 0 0 0 469.336 176.27 A 558.248 558.248 0 0 1 472.656 163.086 A 1022.348 1022.348 0 0 0 469.847 165.554 A 1122.481 1122.481 0 0 0 469.434 165.918 Q 467.773 167.383 466.016 169.336 A 6765.199 6765.199 0 0 1 459.735 175.324 A 6062.601 6062.601 0 0 1 457.715 177.246 A 62.91 62.91 0 0 0 450.684 185.123 A 58.458 58.458 0 0 0 450.586 185.254 Q 447.461 189.453 445.605 194.336 A 27.435 27.435 0 0 0 444.158 199.965 Q 443.756 202.601 443.75 205.57 A 44.63 44.63 0 0 0 443.75 205.664 A 140.098 140.098 0 0 0 443.808 209.819 Q 443.918 213.52 444.238 216.211 A 46.925 46.925 0 0 0 444.582 218.603 Q 444.973 220.883 445.526 222.439 A 13.281 13.281 0 0 0 445.605 222.657 A 11.383 11.383 0 0 0 446.162 223.919 Q 446.849 225.238 447.723 225.858 A 3.361 3.361 0 0 0 447.754 225.879 Q 449.023 226.758 450.586 226.758 Q 453.605 226.758 455.749 223.316 Z" vector-effect="non-scaling-stroke"/></g></svg>
