<svg width="294.5" height="93.502" viewBox="0 0 294.5 93.502" xmlns="http://www.w3.org/2000/svg"><g id="svgGroup" stroke-linecap="round" fill-rule="evenodd" font-size="9pt" stroke="#000" stroke-width="0.25mm" fill="black" style="stroke:#000;stroke-width:0.25mm;fill:black"><path d="M 90 54.4 L 90 58.4 A 156.656 156.656 0 0 1 75.312 61.075 A 479.645 479.645 0 0 1 58.9 63 L 60.6 72 A 19420.977 19420.977 0 0 0 63.48 71.516 C 74.869 69.603 86.955 67.691 91.895 70.097 A 3.618 3.618 0 0 1 94.2 73.5 A 4.071 4.071 0 0 1 90.876 77.694 C 86.352 79.294 76.28 79.5 55.3 79.5 L 55.3 93.5 A 631.434 631.434 0 0 0 71.423 93.332 C 88.133 92.898 99.259 91.469 105.179 87.295 A 11.791 11.791 0 0 0 110.3 76.9 C 110.3 67.165 101.443 63.804 91.185 63.804 A 50.838 50.838 0 0 0 88.1 63.9 C 95.159 61.513 100.928 58.791 104.897 55.446 A 14.979 14.979 0 0 0 110.9 43.7 A 14.118 14.118 0 0 0 110.725 41.497 C 110.457 39.801 109.928 38.47 109.5 37.9 A 5.973 5.973 0 0 1 112.161 37.071 C 112.859 37 113.557 37 114.2 37 L 117.6 37 L 117.6 23 L 113.2 23 A 38.248 38.248 0 0 0 109.86 23.128 C 106.954 23.384 104.049 24.104 101.842 25.987 A 9.336 9.336 0 0 0 100.5 27.4 A 27.427 27.427 0 0 0 89.143 22.74 A 47.159 47.159 0 0 0 80.5 22 A 46.578 46.578 0 0 0 67.301 23.751 C 63.159 24.985 59.629 26.876 57.007 29.442 A 16.544 16.544 0 0 0 52 41.7 A 15.954 15.954 0 0 0 53.648 49.098 C 58.425 58.375 72.857 59.719 87.288 55.299 A 62.899 62.899 0 0 0 90 54.4 Z M 48 17 L 48 3 L 0 3 L 0 17 L 16 17 L 16 59.5 L 0 59.5 L 0 73.5 L 48 73.5 L 48 59.5 L 32 59.5 L 32 17 L 48 17 Z M 294.5 73.5 L 294.5 0 L 278.5 0 L 278.5 26.1 L 281.5 35.1 L 277.5 35.1 A 19.902 19.902 0 0 0 270.204 25.269 C 267.289 23.325 263.39 22.071 258.061 22.003 A 36.004 36.004 0 0 0 257.6 22 C 246.333 22 239.413 29.087 236.841 38.895 A 36.781 36.781 0 0 0 235.7 48.2 C 235.7 62.5 243 74.5 257.6 74.5 A 28.796 28.796 0 0 0 263.798 73.878 C 271.409 72.202 275.018 67.369 277.175 62.208 A 33.845 33.845 0 0 0 277.5 61.4 L 281.5 61.4 L 278.5 70.4 L 278.5 73.5 L 294.5 73.5 Z M 124.6 73.5 L 150.6 73.5 A 98.262 98.262 0 0 0 164.821 72.651 C 175.229 71.098 182.593 67.003 183.586 57.157 A 23.503 23.503 0 0 0 183.7 54.8 C 183.7 39.8 172.3 38.8 161.6 38.4 L 161.6 34.4 A 297.055 297.055 0 0 1 162.114 34.359 C 169.522 33.78 178.5 33.2 178.5 20.3 A 19.622 19.622 0 0 0 177.273 12.954 C 174.134 5.138 164.942 3 149.4 3 L 124.6 3 L 124.6 73.5 Z M 188.7 73.5 L 232.7 73.5 L 232.7 59.5 L 218.4 59.5 L 218.4 30.4 A 11.431 11.431 0 0 0 217.909 26.925 C 216.893 23.742 214.325 21.98 210.431 21.98 A 13.662 13.662 0 0 0 209.7 22 L 190.7 23 L 190.7 37 L 203 36.4 L 203 59.5 L 188.7 59.5 L 188.7 73.5 Z M 277.833 53.075 A 16.325 16.325 0 0 0 278.5 48.2 A 18.286 18.286 0 0 0 278.24 45.014 C 277.428 40.432 274.739 37.722 270.428 36.603 A 21.295 21.295 0 0 0 265.1 36 A 21.565 21.565 0 0 0 259.947 36.559 C 256.054 37.521 253.455 39.752 252.331 43.451 A 16.344 16.344 0 0 0 251.7 48.2 A 18.757 18.757 0 0 0 251.91 51.085 C 252.919 57.565 257.542 60.5 265.1 60.5 C 271.836 60.5 276.24 58.169 277.833 53.075 Z M 140.6 59.5 L 140.6 43.8 L 152.6 43.8 A 132.324 132.324 0 0 1 157.892 43.866 C 163.381 44.094 166.792 45.108 167.543 49.612 A 12.729 12.729 0 0 1 167.7 51.7 A 10.349 10.349 0 0 1 167.245 54.976 C 166.106 58.384 162.867 59.225 157.951 59.432 A 131.942 131.942 0 0 1 152.6 59.5 L 140.6 59.5 Z M 77.227 49.208 A 43.387 43.387 0 0 0 81.5 49.4 C 86.3 49.4 89.65 48.8 91.8 47.662 A 5.273 5.273 0 0 0 94.9 42.7 C 94.9 39.156 92.195 36.823 85.583 36.18 A 42.404 42.404 0 0 0 81.5 36 A 42.905 42.905 0 0 0 77.506 36.171 C 74.602 36.444 72.43 37.037 70.901 37.912 A 5.228 5.228 0 0 0 68 42.7 A 5.172 5.172 0 0 0 70.642 47.374 C 72.135 48.296 74.298 48.917 77.227 49.208 Z M 140.6 29.8 L 140.6 17 L 151.4 17 A 65.377 65.377 0 0 1 155.75 17.091 C 159.858 17.375 162.5 18.55 162.5 23.4 C 162.5 29.8 157.9 29.8 151.4 29.8 L 140.6 29.8 Z M 209.4 18 C 215.3 18 219 15.2 219 10 A 8.053 8.053 0 0 0 218.073 6.08 C 216.68 3.54 213.787 2.109 209.862 2.006 A 17.536 17.536 0 0 0 209.4 2 C 203.891 2 200.475 4.528 200.046 9.015 A 10.354 10.354 0 0 0 200 10 C 200 15.2 203.5 18 209.4 18 Z" vector-effect="non-scaling-stroke"/></g></svg>
