<svg width="348.8" height="65.3" viewBox="0 0 348.8 65.3" xmlns="http://www.w3.org/2000/svg"><g id="svgGroup" stroke-linecap="round" fill-rule="evenodd" font-size="9pt" stroke="#ffffff" stroke-width="0.25mm" fill="#ffffff" style="stroke:#ffffff;stroke-width:0.25mm;fill:#ffffff"><path d="M 41.2 2.4 L 41.6 1.4 Q 41.776 0.959 42.536 0.635 A 4.566 4.566 0 0 1 42.75 0.55 Q 43.7 0.2 44.7 0.2 Q 45.463 0.2 46.022 0.375 A 2.707 2.707 0 0 1 46.35 0.5 Q 46.707 0.665 46.868 0.89 A 0.689 0.689 0 0 1 47 1.3 A 1.351 1.351 0 0 1 46.951 1.642 Q 46.844 2.05 46.5 2.6 A 42.992 42.992 0 0 1 50.039 3.064 A 34.051 34.051 0 0 1 52.55 3.6 A 27.15 27.15 0 0 1 54.719 4.244 Q 55.756 4.603 56.633 5.017 A 14.832 14.832 0 0 1 57.2 5.3 A 3.13 3.13 0 0 1 57.662 5.551 Q 58.122 5.848 58.669 6.373 A 11.907 11.907 0 0 1 58.85 6.55 A 6.629 6.629 0 0 1 59.243 6.976 Q 59.603 7.405 59.73 7.749 A 1.015 1.015 0 0 1 59.8 8.1 Q 59.8 8.578 59.071 8.599 A 2.391 2.391 0 0 1 59 8.6 Q 58.728 8.6 58.364 8.554 A 9.456 9.456 0 0 1 58 8.5 Q 57.541 8.424 56.964 8.23 A 11.2 11.2 0 0 1 56.6 8.1 A 13.636 13.636 0 0 0 55.05 7.64 Q 54.223 7.443 53.251 7.297 A 31.559 31.559 0 0 0 51.65 7.1 A 62.245 62.245 0 0 0 47.662 6.842 A 75.926 75.926 0 0 0 45.1 6.8 A 13828.672 13828.672 0 0 0 43.898 10.489 Q 42.831 13.763 41.55 17.7 A 287.882 287.882 0 0 1 38.194 27.403 A 326.951 326.951 0 0 1 36.95 30.75 Q 34.4 37.5 31.4 43.65 A 71.117 71.117 0 0 1 28.718 48.658 Q 27.287 51.079 25.793 53.093 A 41.222 41.222 0 0 1 25.1 54 Q 24.1 55 23.15 56 Q 22.2 57 21.3 57.8 A 198.223 198.223 0 0 0 24.428 57.833 Q 26.821 57.839 29.016 57.781 A 131.108 131.108 0 0 0 31.35 57.7 A 1012.962 1012.962 0 0 1 33.534 57.606 Q 36.674 57.475 38.998 57.4 A 200.534 200.534 0 0 0 39 57.4 L 39.6 57.4 Q 40.228 57.4 40.498 57.563 A 0.377 0.377 0 0 1 40.7 57.9 A 1.013 1.013 0 0 1 40.61 58.302 Q 40.478 58.608 40.152 58.947 A 3.915 3.915 0 0 1 40.1 59 A 8.18 8.18 0 0 1 39.778 59.306 Q 39.472 59.581 39.228 59.729 A 1.789 1.789 0 0 1 39.1 59.8 Q 38.6 60 35.65 60.25 A 95.379 95.379 0 0 1 34.088 60.369 Q 31.622 60.537 28.376 60.649 A 268.74 268.74 0 0 1 28.35 60.65 Q 24 60.8 19.3 60.95 Q 14.6 61.1 10.6 61.15 Q 6.6 61.2 4.4 61.2 Q 2.3 61.2 1.15 60.85 Q 0.235 60.572 0.048 59.691 A 2.366 2.366 0 0 1 0 59.2 A 5.574 5.574 0 0 1 0.047 58.489 A 6.609 6.609 0 0 1 0.1 58.15 A 4.518 4.518 0 0 1 0.22 57.659 Q 0.327 57.305 0.5 56.9 A 3.222 3.222 0 0 1 1.937 55.382 A 4.184 4.184 0 0 1 2.2 55.25 Q 3.218 54.784 4.092 54.713 A 3.815 3.815 0 0 1 4.4 54.7 A 3.427 3.427 0 0 1 5.681 54.937 A 3.247 3.247 0 0 1 6.2 55.2 A 13.72 13.72 0 0 0 7.933 56.246 A 17.805 17.805 0 0 0 9.5 56.95 Q 11.4 57.7 13.5 57.7 A 10.932 10.932 0 0 0 16.847 57.157 A 13.758 13.758 0 0 0 18.4 56.55 Q 20.473 55.597 22.339 53.303 A 19.128 19.128 0 0 0 23.1 52.3 A 38.293 38.293 0 0 0 25.648 48.514 Q 27.238 45.841 28.7 42.55 A 132.351 132.351 0 0 0 32.906 31.815 A 146.563 146.563 0 0 0 33.45 30.2 Q 35.6 23.7 37.3 17.55 Q 38.469 13.322 39.354 9.874 A 266.527 266.527 0 0 0 40.1 6.9 Q 34.9 7.3 30 8.65 Q 25.493 9.892 22.467 12.064 A 16.757 16.757 0 0 0 21.95 12.45 A 8.953 8.953 0 0 0 20.038 14.438 A 7.015 7.015 0 0 0 18.8 18.5 A 5.928 5.928 0 0 0 18.966 19.942 A 4.255 4.255 0 0 0 19.9 21.75 Q 21 23 22.45 23.7 Q 23.747 24.326 24.604 24.793 A 25.074 25.074 0 0 1 24.8 24.9 A 3.852 3.852 0 0 1 25.056 25.059 Q 25.431 25.314 25.489 25.524 A 0.283 0.283 0 0 1 25.5 25.6 Q 25.5 26.145 24.759 25.866 A 2.961 2.961 0 0 1 24.6 25.8 Q 23.4 25.5 21.55 24.45 A 11.323 11.323 0 0 1 18.713 22.144 A 13.223 13.223 0 0 1 18.25 21.6 Q 16.8 19.8 16.7 17.5 A 0.795 0.795 0 0 0 16.689 17.374 Q 16.667 17.24 16.604 17.051 A 4.376 4.376 0 0 0 16.55 16.9 A 2.861 2.861 0 0 1 16.46 16.62 Q 16.4 16.39 16.4 16.2 A 12.141 12.141 0 0 1 16.383 15.562 Q 16.383 13.923 16.845 12.52 A 8.308 8.308 0 0 1 18.35 9.8 A 14.345 14.345 0 0 1 21.611 6.929 A 18.957 18.957 0 0 1 24.15 5.55 A 31.043 31.043 0 0 1 29.547 3.707 A 37.403 37.403 0 0 1 32.25 3.15 Q 36.7 2.4 41.2 2.4 Z M 166.7 61.3 Q 165 61.3 163.55 60.5 Q 162.332 59.828 161.644 58.169 A 8.343 8.343 0 0 1 161.4 57.5 A 3.597 3.597 0 0 1 161.393 57.479 Q 161.1 56.581 161.1 55 A 19.112 19.112 0 0 1 161.245 52.713 Q 161.395 51.471 161.7 50.1 A 48.149 48.149 0 0 1 162.164 48.188 Q 162.563 46.688 163 45.5 A 1.274 1.274 0 0 0 162.741 45.652 Q 162.205 46.039 161.15 47.25 Q 159.8 48.8 157.85 50.95 Q 155.9 53.1 153.55 55.25 A 27.481 27.481 0 0 1 150.286 57.826 A 23.533 23.533 0 0 1 148.7 58.8 A 11.787 11.787 0 0 1 146.455 59.782 A 8.881 8.881 0 0 1 143.8 60.2 A 6.173 6.173 0 0 1 142.057 59.936 Q 141.352 59.729 140.612 59.359 A 10.8 10.8 0 0 1 140.4 59.25 A 8.845 8.845 0 0 1 138.423 57.848 A 7.818 7.818 0 0 1 137.5 56.8 A 8.194 8.194 0 0 1 136.508 55.111 A 6.081 6.081 0 0 1 136 52.7 A 8.858 8.858 0 0 1 136.553 49.687 Q 137.012 48.414 137.85 47.1 A 26.725 26.725 0 0 1 140.435 43.709 A 34.071 34.071 0 0 1 142.65 41.45 Q 145.6 38.7 148.95 36.45 A 68.72 68.72 0 0 1 152.624 34.14 A 53.606 53.606 0 0 1 155.35 32.65 Q 158.4 31.1 160.3 30.6 A 13.902 13.902 0 0 1 162.708 30.115 A 18.306 18.306 0 0 1 164.8 30 A 12.297 12.297 0 0 1 166.956 30.197 A 14.299 14.299 0 0 1 167.7 30.35 A 7.272 7.272 0 0 1 168.996 30.777 A 5.45 5.45 0 0 1 170.2 31.5 Q 171 31.9 171.5 32.6 A 2.688 2.688 0 0 1 171.909 33.437 A 2.439 2.439 0 0 1 172 34.1 A 1.351 1.351 0 0 1 171.986 34.305 Q 171.909 34.806 171.409 34.642 A 1.325 1.325 0 0 1 171.3 34.6 Q 170.5 33.4 169.15 33.05 Q 167.8 32.7 166.4 32.7 Q 163.074 32.7 159.195 34.498 A 28.595 28.595 0 0 0 157.6 35.3 A 42.604 42.604 0 0 0 149.239 41.182 A 39.904 39.904 0 0 0 149 41.4 Q 147.8 42.4 145.75 44.85 Q 143.7 47.3 142 50.2 Q 140.753 52.327 140.421 54.185 A 7.463 7.463 0 0 0 140.3 55.5 A 4.095 4.095 0 0 0 140.56 56.973 A 3.804 3.804 0 0 0 141 57.8 A 1.314 1.314 0 0 0 141.943 58.469 A 1.956 1.956 0 0 0 142.3 58.5 A 3.63 3.63 0 0 0 143.241 58.361 Q 144.151 58.115 145.336 57.434 A 17.968 17.968 0 0 0 146.05 57 A 38.414 38.414 0 0 0 148.741 55.107 A 49.415 49.415 0 0 0 150.9 53.35 Q 153.4 51.2 155.45 49.2 Q 157.338 47.358 158.25 46.45 A 105.882 105.882 0 0 0 158.4 46.3 A 25.395 25.395 0 0 0 158.664 46.031 Q 159.088 45.595 159.851 44.783 A 316.244 316.244 0 0 0 160.35 44.25 Q 161.8 42.7 163.5 40.9 A 116.971 116.971 0 0 1 164.921 39.421 Q 165.791 38.531 166.55 37.8 A 19.73 19.73 0 0 1 167.023 37.358 Q 167.956 36.517 168.287 36.501 A 0.261 0.261 0 0 1 168.3 36.5 Q 168.796 36.5 169.931 36.746 A 25.735 25.735 0 0 1 169.95 36.75 Q 171.1 37 171.9 37.5 Q 172.645 37.966 172.263 38.691 A 1.702 1.702 0 0 1 172.2 38.8 Q 169.6 42.6 168.05 46.75 A 57.222 57.222 0 0 0 167.277 48.946 Q 166.576 51.087 166.302 52.629 A 13.325 13.325 0 0 0 166.2 53.3 A 3.473 3.473 0 0 0 166.121 53.723 A 2.713 2.713 0 0 0 166.1 54.05 L 166.1 54.8 A 8.462 8.462 0 0 0 166.207 56.21 Q 166.632 58.712 168.749 58.797 A 3.763 3.763 0 0 0 168.9 58.8 A 3.457 3.457 0 0 0 169.879 58.642 Q 170.797 58.369 171.976 57.626 A 18.104 18.104 0 0 0 172.9 57 A 42.593 42.593 0 0 0 175.744 54.754 A 53.976 53.976 0 0 0 178 52.7 A 114.022 114.022 0 0 0 181.074 49.634 A 94.536 94.536 0 0 0 182.75 47.85 Q 184.9 45.5 185.7 44.3 Q 185.901 44.1 186.101 44.033 A 0.629 0.629 0 0 1 186.3 44 Q 186.7 44 187 44.35 A 0.634 0.634 0 0 1 187.115 44.541 Q 187.209 44.792 187.051 45.107 A 1.399 1.399 0 0 1 187 45.2 A 23.692 23.692 0 0 1 186.126 46.52 Q 185.178 47.86 183.8 49.5 A 62.115 62.115 0 0 1 180.446 53.172 A 72.15 72.15 0 0 1 179.1 54.5 A 52.411 52.411 0 0 1 176.207 57.091 A 41.342 41.342 0 0 1 174 58.8 A 10.297 10.297 0 0 1 172.628 59.683 Q 171.763 60.152 170.7 60.55 A 11.527 11.527 0 0 1 167.45 61.274 A 10.69 10.69 0 0 1 166.7 61.3 Z M 41.821 61.586 A 1.024 1.024 0 0 0 42 61.6 A 3.134 3.134 0 0 0 42.435 61.567 Q 43.012 61.485 43.828 61.206 A 17.115 17.115 0 0 0 44.65 60.9 Q 46.4 60.2 46.9 59.9 A 2.091 2.091 0 0 0 47.199 59.684 Q 47.76 59.211 48.731 57.996 A 42.668 42.668 0 0 0 49.35 57.2 Q 51.1 54.9 53.45 51.7 Q 55.8 48.5 58.3 45.45 Q 60.8 42.4 63 40.5 Q 64.725 38.919 65.933 38.009 A 14.471 14.471 0 0 1 66.8 37.4 Q 68.2 36.5 68.9 36.5 A 1.002 1.002 0 0 1 69.078 36.515 Q 69.473 36.587 69.569 36.998 A 1.33 1.33 0 0 1 69.6 37.3 A 2.48 2.48 0 0 1 69.576 37.632 Q 69.499 38.205 69.169 39 A 12.669 12.669 0 0 1 68.8 39.8 Q 68 41.2 66.7 43.9 A 48.411 48.411 0 0 0 66.3 44.753 A 53.975 53.975 0 0 0 64.35 49.65 A 20.812 20.812 0 0 0 63.651 52.161 A 15.813 15.813 0 0 0 63.3 55.4 A 8.072 8.072 0 0 0 63.357 56.375 A 6.249 6.249 0 0 0 64.5 59.35 A 4.032 4.032 0 0 0 65.424 60.263 Q 66.069 60.724 66.942 60.992 A 8.314 8.314 0 0 0 68.5 61.3 A 10.765 10.765 0 0 0 68.989 61.311 Q 70.945 61.311 72.9 60.6 A 24.323 24.323 0 0 0 73.505 60.371 Q 74.392 60.022 75.154 59.637 A 13.932 13.932 0 0 0 76.6 58.8 Q 79.1 57 81.7 54.45 Q 84.3 51.9 86.45 49.35 Q 87.928 47.597 88.815 46.246 A 14.286 14.286 0 0 0 89.5 45.1 Q 89.589 44.878 89.589 44.695 A 0.598 0.598 0 0 0 89.45 44.3 A 0.815 0.815 0 0 0 89.14 44.065 A 0.864 0.864 0 0 0 88.8 44 A 0.629 0.629 0 0 0 88.601 44.033 Q 88.401 44.1 88.2 44.3 A 13.975 13.975 0 0 1 87.728 44.961 Q 87.163 45.708 86.269 46.747 A 79.002 79.002 0 0 1 85.3 47.85 Q 83.2 50.2 80.55 52.7 A 58.694 58.694 0 0 1 78.26 54.754 A 45.644 45.644 0 0 1 75.4 57 A 18.104 18.104 0 0 1 74.476 57.626 Q 73.297 58.369 72.379 58.642 A 3.457 3.457 0 0 1 71.4 58.8 A 3.475 3.475 0 0 1 71.229 58.796 Q 69.21 58.697 68.803 56.21 A 8.769 8.769 0 0 1 68.7 54.8 L 68.7 54.05 A 2.713 2.713 0 0 1 68.721 53.723 A 3.473 3.473 0 0 1 68.8 53.3 Q 69.009 51.284 69.991 48.397 A 51.418 51.418 0 0 1 71 45.7 Q 72.1 43.1 73.5 40.75 Q 74.9 38.4 75.8 35.9 Q 76.3 34.1 76.3 33.2 Q 76.3 31.199 74.879 30.738 A 3.171 3.171 0 0 0 73.9 30.6 A 4.29 4.29 0 0 0 73.654 30.607 Q 71.83 30.712 69.35 32.35 Q 66.7 34.1 63.65 36.9 Q 60.6 39.7 57.8 42.7 Q 55 45.7 52.75 48.3 A 123.134 123.134 0 0 0 51.764 49.453 Q 50.266 51.228 49.5 52.3 A 1541.625 1541.625 0 0 1 49.809 51.426 Q 50.179 50.381 50.681 48.963 A 5967.589 5967.589 0 0 1 51.2 47.5 A 157.442 157.442 0 0 1 52.067 45.119 A 193.382 193.382 0 0 1 53.7 40.9 A 249.596 249.596 0 0 1 53.885 40.439 Q 54.53 38.837 55.131 37.407 A 148.027 148.027 0 0 1 56.3 34.7 A 16.371 16.371 0 0 0 56.37 34.53 Q 56.684 33.751 56.769 33.294 A 1.643 1.643 0 0 0 56.8 33 Q 56.8 31.6 53.8 31.6 A 4.817 4.817 0 0 0 53.411 31.615 Q 52.118 31.72 51.55 32.55 Q 50.9 33.5 50.7 34.65 A 25.716 25.716 0 0 1 50.634 35.014 Q 50.526 35.585 50.419 35.996 A 6.5 6.5 0 0 1 50.3 36.4 A 79.652 79.652 0 0 0 50 37.216 Q 49.477 38.656 48.75 40.8 Q 47.8 43.6 46.7 46.8 A 1276.318 1276.318 0 0 1 46.426 47.597 A 1163.447 1163.447 0 0 1 44.55 53 A 394.181 394.181 0 0 1 43.918 54.792 Q 43.615 55.647 43.335 56.418 A 208.646 208.646 0 0 1 42.7 58.15 Q 42.075 59.83 41.755 60.564 A 7.295 7.295 0 0 1 41.6 60.9 A 1.756 1.756 0 0 0 41.592 60.918 Q 41.35 61.502 41.821 61.586 Z M 269.421 61.586 A 1.024 1.024 0 0 0 269.6 61.6 A 3.134 3.134 0 0 0 270.035 61.567 Q 270.612 61.485 271.428 61.206 A 17.115 17.115 0 0 0 272.25 60.9 Q 274 60.2 274.5 59.9 A 2.091 2.091 0 0 0 274.799 59.684 Q 275.36 59.211 276.331 57.996 A 42.668 42.668 0 0 0 276.95 57.2 Q 278.7 54.9 281.05 51.7 Q 283.4 48.5 285.9 45.45 Q 288.4 42.4 290.6 40.5 Q 292.325 38.919 293.533 38.009 A 14.471 14.471 0 0 1 294.4 37.4 Q 295.8 36.5 296.5 36.5 A 1.002 1.002 0 0 1 296.678 36.515 Q 297.073 36.587 297.169 36.998 A 1.33 1.33 0 0 1 297.2 37.3 A 2.48 2.48 0 0 1 297.176 37.632 Q 297.099 38.205 296.769 39 A 12.669 12.669 0 0 1 296.4 39.8 Q 295.6 41.2 294.3 43.9 A 48.411 48.411 0 0 0 293.9 44.753 A 53.975 53.975 0 0 0 291.95 49.65 A 20.812 20.812 0 0 0 291.251 52.161 A 15.813 15.813 0 0 0 290.9 55.4 A 8.072 8.072 0 0 0 290.957 56.375 A 6.249 6.249 0 0 0 292.1 59.35 A 4.032 4.032 0 0 0 293.024 60.263 Q 293.669 60.724 294.542 60.992 A 8.314 8.314 0 0 0 296.1 61.3 A 10.765 10.765 0 0 0 296.589 61.311 Q 298.545 61.311 300.5 60.6 A 24.323 24.323 0 0 0 301.105 60.371 Q 301.992 60.022 302.754 59.637 A 13.932 13.932 0 0 0 304.2 58.8 Q 306.7 57 309.3 54.45 Q 311.9 51.9 314.05 49.35 Q 315.528 47.597 316.415 46.246 A 14.286 14.286 0 0 0 317.1 45.1 Q 317.189 44.878 317.189 44.695 A 0.598 0.598 0 0 0 317.05 44.3 A 0.815 0.815 0 0 0 316.74 44.065 A 0.864 0.864 0 0 0 316.4 44 A 0.629 0.629 0 0 0 316.201 44.033 Q 316.001 44.1 315.8 44.3 A 13.975 13.975 0 0 1 315.328 44.961 Q 314.763 45.708 313.869 46.747 A 79.002 79.002 0 0 1 312.9 47.85 Q 310.8 50.2 308.15 52.7 A 58.694 58.694 0 0 1 305.86 54.754 A 45.644 45.644 0 0 1 303 57 A 18.104 18.104 0 0 1 302.076 57.626 Q 300.897 58.369 299.979 58.642 A 3.457 3.457 0 0 1 299 58.8 A 3.475 3.475 0 0 1 298.829 58.796 Q 296.81 58.697 296.403 56.21 A 8.769 8.769 0 0 1 296.3 54.8 L 296.3 54.05 A 2.713 2.713 0 0 1 296.321 53.723 A 3.473 3.473 0 0 1 296.4 53.3 Q 296.609 51.284 297.591 48.397 A 51.418 51.418 0 0 1 298.6 45.7 Q 299.7 43.1 301.1 40.75 Q 302.5 38.4 303.4 35.9 Q 303.9 34.1 303.9 33.2 Q 303.9 31.199 302.479 30.738 A 3.171 3.171 0 0 0 301.5 30.6 A 4.29 4.29 0 0 0 301.254 30.607 Q 299.43 30.712 296.95 32.35 Q 294.3 34.1 291.25 36.9 Q 288.2 39.7 285.4 42.7 Q 282.6 45.7 280.35 48.3 A 123.134 123.134 0 0 0 279.364 49.453 Q 277.866 51.228 277.1 52.3 A 1541.625 1541.625 0 0 1 277.409 51.426 Q 277.779 50.381 278.281 48.963 A 5967.589 5967.589 0 0 1 278.8 47.5 A 157.442 157.442 0 0 1 279.667 45.119 A 193.382 193.382 0 0 1 281.3 40.9 A 249.596 249.596 0 0 1 281.485 40.439 Q 282.13 38.837 282.731 37.407 A 148.027 148.027 0 0 1 283.9 34.7 A 16.371 16.371 0 0 0 283.97 34.53 Q 284.284 33.751 284.369 33.294 A 1.643 1.643 0 0 0 284.4 33 Q 284.4 31.6 281.4 31.6 A 4.817 4.817 0 0 0 281.011 31.615 Q 279.718 31.72 279.15 32.55 Q 278.5 33.5 278.3 34.65 A 25.716 25.716 0 0 1 278.234 35.014 Q 278.126 35.585 278.019 35.996 A 6.5 6.5 0 0 1 277.9 36.4 A 79.652 79.652 0 0 0 277.6 37.216 Q 277.077 38.656 276.35 40.8 Q 275.4 43.6 274.3 46.8 A 1276.318 1276.318 0 0 1 274.026 47.597 A 1163.447 1163.447 0 0 1 272.15 53 A 394.181 394.181 0 0 1 271.518 54.792 Q 271.215 55.647 270.935 56.418 A 208.646 208.646 0 0 1 270.3 58.15 Q 269.675 59.83 269.355 60.564 A 7.295 7.295 0 0 1 269.2 60.9 A 1.756 1.756 0 0 0 269.192 60.918 Q 268.95 61.502 269.421 61.586 Z M 323.6 49 L 323.4 49 Q 322.531 49 322.243 48.643 A 0.683 0.683 0 0 1 322.1 48.2 Q 322.1 47.723 322.829 47.701 A 2.391 2.391 0 0 1 322.9 47.7 A 8.916 8.916 0 0 0 324.61 47.37 Q 326.232 46.904 328.271 45.821 A 32.709 32.709 0 0 0 328.95 45.45 A 55.95 55.95 0 0 0 332.787 43.097 A 43.864 43.864 0 0 0 335.4 41.2 Q 336.6 40.2 338.25 38.4 A 8.281 8.281 0 0 0 339.116 37.292 Q 339.526 36.654 339.722 36.028 A 3.762 3.762 0 0 0 339.9 34.9 A 2.755 2.755 0 0 0 339.819 34.202 Q 339.585 33.309 338.667 33.14 A 2.578 2.578 0 0 0 338.2 33.1 A 4.45 4.45 0 0 0 336.946 33.287 A 5.567 5.567 0 0 0 336.35 33.5 Q 335.4 33.9 334.8 34.1 A 22.549 22.549 0 0 0 332.541 35.368 Q 331.335 36.132 330.041 37.127 A 46.729 46.729 0 0 0 328.4 38.45 Q 324.9 41.4 322.05 45.05 A 25.927 25.927 0 0 0 319.669 48.655 A 19.612 19.612 0 0 0 318.1 52.4 A 7.598 7.598 0 0 0 317.803 53.381 A 6.342 6.342 0 0 0 317.7 53.95 A 11.216 11.216 0 0 0 317.604 55.136 A 10.001 10.001 0 0 0 317.6 55.4 A 5.804 5.804 0 0 0 317.73 56.671 Q 317.908 57.466 318.333 58.039 A 3.097 3.097 0 0 0 319.15 58.8 A 6.157 6.157 0 0 0 321.434 59.677 A 8.348 8.348 0 0 0 322.9 59.8 A 16.533 16.533 0 0 0 327.425 59.146 A 20.724 20.724 0 0 0 329.7 58.35 A 35.741 35.741 0 0 0 336.087 54.884 A 39.571 39.571 0 0 0 336.5 54.6 Q 339.8 52.3 342.55 49.65 Q 345.3 47 347.2 44.5 A 1.389 1.389 0 0 1 347.418 44.267 A 0.918 0.918 0 0 1 347.9 44.05 A 1.372 1.372 0 0 1 347.972 44.043 Q 348.309 44.019 348.4 44.2 A 0.581 0.581 0 0 1 348.602 44.29 Q 348.8 44.434 348.8 44.75 Q 348.8 45.2 348.6 45.6 A 49.195 49.195 0 0 1 344.263 50.809 A 59.087 59.087 0 0 1 341.85 53.2 Q 337.9 56.9 333.15 59.35 Q 328.4 61.8 323.3 61.8 A 16.206 16.206 0 0 1 319.253 61.315 A 12.946 12.946 0 0 1 315.5 59.7 A 6.79 6.79 0 0 1 312.307 54.775 A 9.816 9.816 0 0 1 312.2 53.3 A 9.673 9.673 0 0 1 312.389 51.476 Q 312.562 50.58 312.893 49.57 A 23.752 23.752 0 0 1 313.6 47.7 Q 314.6 45.4 317.3 42.4 Q 320 39.4 323.6 36.55 Q 327.2 33.7 330.9 31.85 Q 334.6 30 337.6 30 A 6.981 6.981 0 0 1 338.759 30.093 A 5.588 5.588 0 0 1 339.6 30.3 A 5.196 5.196 0 0 1 340.681 30.819 A 3.481 3.481 0 0 1 341.95 32.2 Q 342.6 33.5 342.6 34.9 Q 342.6 36.2 342.2 37.4 A 9.772 9.772 0 0 1 341.703 38.623 A 7.72 7.72 0 0 1 341.2 39.5 A 14.687 14.687 0 0 1 338.685 42.348 A 20.013 20.013 0 0 1 336.05 44.3 A 34.448 34.448 0 0 1 330.755 47.032 A 30.811 30.811 0 0 1 329.25 47.6 A 40.913 40.913 0 0 1 327.216 48.253 Q 325.252 48.822 323.804 48.98 A 11.524 11.524 0 0 1 323.6 49 Z M 90.1 56.9 L 90.3 56.9 Q 90.786 56.9 90.8 57.231 A 0.47 0.47 0 0 1 90.8 57.25 Q 90.8 57.544 90.519 57.802 A 1.551 1.551 0 0 1 90.4 57.9 A 9.56 9.56 0 0 0 88.978 58.764 A 6.927 6.927 0 0 0 87.6 60.1 A 3.12 3.12 0 0 0 87.153 60.754 A 2.308 2.308 0 0 0 86.9 61.8 A 1.914 1.914 0 0 0 87.012 62.481 Q 87.36 63.4 88.8 63.4 Q 90.9 63.4 93.35 62.15 Q 95.8 60.9 98.05 58.85 A 21.439 21.439 0 0 0 100.504 56.225 A 17.886 17.886 0 0 0 101.7 54.5 Q 102.933 52.474 103.08 50.603 A 6.425 6.425 0 0 0 103.1 50.1 A 2.663 2.663 0 0 0 102.585 48.545 Q 102.312 48.156 101.895 47.791 A 5.907 5.907 0 0 0 101.6 47.55 Q 100.1 46.4 98.3 45.45 Q 96.816 44.667 95.944 44.122 A 14.027 14.027 0 0 1 95.6 43.9 A 21.03 21.03 0 0 1 94.077 42.685 A 18.277 18.277 0 0 1 93.6 42.25 Q 92.7 41.4 92.2 40.4 A 55.758 55.758 0 0 1 91.537 41.528 Q 91.234 42.03 90.887 42.585 A 112.933 112.933 0 0 1 90.15 43.75 A 41.148 41.148 0 0 1 88.601 45.991 A 51.824 51.824 0 0 1 87.2 47.8 Q 86.799 48.201 86.398 48.334 A 1.258 1.258 0 0 1 86 48.4 A 1.052 1.052 0 0 1 85.777 48.379 Q 85.456 48.309 85.408 48.011 A 0.702 0.702 0 0 1 85.4 47.9 Q 85.4 47.622 85.829 47.001 A 7.834 7.834 0 0 1 85.9 46.9 Q 87.967 44.45 89.214 42.293 A 19.462 19.462 0 0 0 89.9 41 A 94.004 94.004 0 0 0 90.5 39.731 Q 91.325 37.95 91.7 36.9 A 9.54 9.54 0 0 1 93.069 33.181 A 12.886 12.886 0 0 1 94.4 31.4 A 22.249 22.249 0 0 1 98.508 27.8 A 26.239 26.239 0 0 1 100 26.85 A 33.065 33.065 0 0 1 106.319 23.941 A 30.752 30.752 0 0 1 106.75 23.8 Q 109.624 22.884 111.977 22.731 A 14.224 14.224 0 0 1 112.9 22.7 Q 115.6 22.7 117.7 23.7 Q 119.705 24.655 119.796 26.704 A 4.444 4.444 0 0 1 119.8 26.9 A 4.791 4.791 0 0 1 119.63 28.13 Q 119.456 28.789 119.1 29.5 Q 118.2 31.4 116.1 32.9 Q 116.017 32.983 115.866 32.997 A 0.703 0.703 0 0 1 115.8 33 A 1.33 1.33 0 0 1 115.498 32.969 Q 115.086 32.873 115.015 32.479 A 1.002 1.002 0 0 1 115 32.3 Q 115 31.886 115.343 31.472 A 2.487 2.487 0 0 1 115.5 31.3 Q 116.3 30.6 116.8 29.6 Q 117.291 28.618 117.3 27.732 A 3.249 3.249 0 0 0 117.3 27.7 A 2.189 2.189 0 0 0 117.177 26.935 Q 116.792 25.9 115.2 25.9 A 10.031 10.031 0 0 0 113.899 25.991 Q 112.888 26.124 111.7 26.45 Q 109.7 27 107.85 27.75 Q 106 28.5 104.8 29.1 Q 102.3 30.3 100.2 32.05 A 21.748 21.748 0 0 0 97.901 34.288 A 27.896 27.896 0 0 0 96.2 36.4 A 8.097 8.097 0 0 0 95.49 37.488 Q 95.163 38.099 95.017 38.682 A 3.776 3.776 0 0 0 94.9 39.6 A 2.869 2.869 0 0 0 95.463 41.274 Q 95.791 41.74 96.31 42.183 A 8.297 8.297 0 0 0 97.3 42.9 Q 99.8 44.3 102.25 45.6 A 24.998 24.998 0 0 1 104.496 46.939 A 18.438 18.438 0 0 1 106.4 48.4 A 5.287 5.287 0 0 1 107.528 49.766 A 4.477 4.477 0 0 1 108.1 52 Q 108.1 54.3 105.2 57.5 A 16.365 16.365 0 0 1 103.275 59.301 Q 101.994 60.33 100.35 61.3 Q 97.3 63.1 93.9 64.2 A 25.073 25.073 0 0 1 91.04 64.952 Q 89.551 65.246 88.197 65.292 A 14.668 14.668 0 0 1 87.7 65.3 Q 86.6 65.3 85.5 65 A 2.874 2.874 0 0 1 84.68 64.641 A 2.35 2.35 0 0 1 83.9 63.8 Q 83.5 63 84 61.85 Q 84.5 60.7 85.4 59.8 Q 86.2 59 87.45 58.2 Q 88.7 57.4 90.1 56.9 Z M 219.649 61.152 A 13.155 13.155 0 0 0 221.7 61.3 Q 224.9 61.3 228 59.1 Q 230.5 57.2 233.2 54.65 A 85.448 85.448 0 0 0 234.839 53.061 A 72.576 72.576 0 0 0 238.1 49.6 Q 239.613 47.881 240.558 46.541 A 16.618 16.618 0 0 0 241.3 45.4 Q 241.464 45.073 241.464 44.805 A 0.749 0.749 0 0 0 241.35 44.4 A 1.113 1.113 0 0 0 241.241 44.253 A 0.696 0.696 0 0 0 240.7 44 A 0.629 0.629 0 0 0 240.501 44.033 Q 240.301 44.1 240.1 44.3 A 15.342 15.342 0 0 1 239.67 44.888 Q 239.036 45.716 238.019 46.869 A 80.549 80.549 0 0 1 237 48 A 85.663 85.663 0 0 1 235.28 49.821 A 104.46 104.46 0 0 1 232.1 52.95 A 45.779 45.779 0 0 1 229.915 54.89 A 36.16 36.16 0 0 1 226.75 57.25 Q 225.001 58.406 223.622 58.798 A 4.845 4.845 0 0 1 222.3 59 A 3.765 3.765 0 0 1 222.022 58.99 Q 220.34 58.866 219.6 57.2 A 8.963 8.963 0 0 1 218.97 55.085 A 12.186 12.186 0 0 1 218.8 53 L 218.8 51.95 Q 218.8 51.4 218.9 50.9 A 196.354 196.354 0 0 1 219.002 50.545 Q 219.182 49.919 219.45 49 A 75.408 75.408 0 0 0 219.456 48.981 Q 219.629 48.385 219.815 47.715 A 143.214 143.214 0 0 0 220.2 46.3 Q 229.6 38.6 238.05 29.6 Q 246.5 20.6 252.6 10 A 13.45 13.45 0 0 0 253.214 8.794 A 10.225 10.225 0 0 0 253.75 7.3 A 13.082 13.082 0 0 0 253.847 6.918 Q 254.1 5.851 254.1 5 A 6.256 6.256 0 0 0 253.984 3.76 A 4.032 4.032 0 0 0 252.45 1.25 A 5.958 5.958 0 0 0 250.576 0.294 A 7.082 7.082 0 0 0 248.5 0 A 13.345 13.345 0 0 0 248.078 0.007 A 11.117 11.117 0 0 0 242.4 1.7 Q 239.7 3.4 237.5 5.9 A 97.926 97.926 0 0 0 237.226 6.213 A 89.628 89.628 0 0 0 233.4 10.9 A 59.379 59.379 0 0 0 232.083 12.784 Q 231.39 13.815 230.626 15.023 A 139.553 139.553 0 0 0 228.95 17.75 Q 226.4 22 223.85 27.05 Q 221.3 32.1 219.1 37.2 Q 216.9 42.3 215.55 46.7 A 40.708 40.708 0 0 0 214.809 49.426 Q 214.512 50.708 214.36 51.829 A 16.205 16.205 0 0 0 214.2 54 A 10.292 10.292 0 0 0 214.32 55.599 A 7.639 7.639 0 0 0 215.85 59.2 A 4.788 4.788 0 0 0 217.774 60.632 Q 218.598 60.986 219.649 61.152 Z M 130.9 31.2 L 132.1 31.1 A 86.758 86.758 0 0 0 135.282 30.778 A 74.18 74.18 0 0 0 136.65 30.6 A 22.551 22.551 0 0 1 138.354 30.431 Q 139.85 30.338 141.6 30.4 A 3.729 3.729 0 0 1 142.278 30.465 A 4.572 4.572 0 0 1 142.65 30.55 A 1.713 1.713 0 0 1 142.851 30.617 Q 143.061 30.704 143.145 30.825 A 0.302 0.302 0 0 1 143.2 31 Q 143.2 31.359 141.11 31.959 A 32.201 32.201 0 0 1 140.6 32.1 A 5.137 5.137 0 0 1 140.05 32.278 Q 139.133 32.527 137.353 32.794 A 71.866 71.866 0 0 1 136.25 32.95 Q 132.9 33.4 129.4 33.8 Q 128.713 35.106 128.12 36.106 A 29.563 29.563 0 0 1 127.6 36.95 A 50.206 50.206 0 0 0 127.231 37.535 Q 126.75 38.31 126.523 38.755 A 6.149 6.149 0 0 0 126.5 38.8 Q 124.3 43.4 122.55 47.15 A 33.154 33.154 0 0 0 121.628 49.31 Q 120.833 51.387 120.638 52.941 A 8.661 8.661 0 0 0 120.6 53.3 A 3.473 3.473 0 0 0 120.521 53.723 A 2.713 2.713 0 0 0 120.5 54.05 L 120.5 54.8 A 9.213 9.213 0 0 0 120.591 56.16 Q 120.988 58.8 123.1 58.8 Q 124.478 58.8 126.524 57.502 A 17.991 17.991 0 0 0 127.2 57.05 A 36.109 36.109 0 0 0 130.004 54.863 A 47.099 47.099 0 0 0 132.3 52.75 A 136.374 136.374 0 0 0 135.374 49.641 A 111.425 111.425 0 0 0 137.05 47.85 Q 139.2 45.5 140 44.3 Q 140.201 44.1 140.401 44.033 A 0.629 0.629 0 0 1 140.6 44 A 0.864 0.864 0 0 1 140.94 44.065 A 0.815 0.815 0 0 1 141.25 44.3 A 0.598 0.598 0 0 1 141.389 44.695 Q 141.389 44.878 141.3 45.1 A 14.286 14.286 0 0 1 140.615 46.246 Q 139.728 47.597 138.25 49.35 A 64.863 64.863 0 0 1 134.783 53.135 A 75.121 75.121 0 0 1 133.45 54.45 A 53.998 53.998 0 0 1 130.677 56.948 A 41.372 41.372 0 0 1 128.3 58.8 A 10.702 10.702 0 0 1 126.888 59.71 Q 126.16 60.107 125.299 60.453 A 18.262 18.262 0 0 1 125.05 60.55 Q 123.1 61.3 121.1 61.3 Q 119.3 61.3 117.85 60.5 Q 116.632 59.828 115.944 58.169 A 8.343 8.343 0 0 1 115.7 57.5 Q 115.6 57.2 115.55 56.9 A 3.407 3.407 0 0 1 115.516 56.619 Q 115.504 56.474 115.501 56.311 A 6.069 6.069 0 0 1 115.5 56.2 A 11.462 11.462 0 0 1 115.606 54.707 Q 115.708 53.938 115.906 53.061 A 28.041 28.041 0 0 1 116.4 51.2 Q 117.3 48.2 118.6 45.4 A 49.639 49.639 0 0 0 118.122 46.049 Q 117.911 46.34 117.681 46.666 A 95.797 95.797 0 0 0 117.2 47.35 Q 116.437 48.448 115.036 50.137 A 87.849 87.849 0 0 1 114.9 50.3 A 1.474 1.474 0 0 1 114.559 50.559 A 1.16 1.16 0 0 1 114 50.7 Q 113.3 50.7 113.3 49.9 A 1.479 1.479 0 0 1 113.391 49.374 A 1.329 1.329 0 0 1 113.7 48.9 Q 116.3 45.6 118.35 43 Q 120.355 40.458 121.355 38.68 A 16.315 16.315 0 0 0 121.4 38.6 Q 121.4 38.429 121.839 37.636 A 24.318 24.318 0 0 1 122 37.35 Q 122.6 36.3 123.6 34.4 A 58.142 58.142 0 0 1 123.035 34.468 Q 122.815 34.494 122.618 34.514 A 27.618 27.618 0 0 1 122.25 34.55 A 14.333 14.333 0 0 1 121.859 34.581 Q 121.55 34.6 121.3 34.6 Q 120.6 34.6 120.1 34 Q 119.6 33.4 120 32.5 Q 120.5 31.1 122.2 30.9 Q 123.661 30.728 124.827 30.63 A 52.56 52.56 0 0 1 125.2 30.6 Q 125.293 30.414 125.559 30.401 A 0.839 0.839 0 0 1 125.6 30.4 A 290.614 290.614 0 0 0 127.831 26.232 A 267.327 267.327 0 0 0 127.9 26.1 A 670.55 670.55 0 0 1 128.428 25.094 Q 129.188 23.65 129.75 22.6 A 88.914 88.914 0 0 0 129.926 22.271 Q 130.478 21.23 130.499 21.109 A 0.049 0.049 0 0 0 130.5 21.1 A 472.743 472.743 0 0 0 131.308 19.803 Q 132.631 17.671 133.1 16.85 A 3.045 3.045 0 0 1 133.577 16.211 A 2.146 2.146 0 0 1 134.7 15.6 A 8.282 8.282 0 0 1 135.45 15.567 Q 136.024 15.567 136.634 15.642 A 11.315 11.315 0 0 1 137.05 15.7 A 4.007 4.007 0 0 1 137.654 15.842 Q 137.96 15.941 138.19 16.085 A 1.469 1.469 0 0 1 138.7 16.6 A 1.47 1.47 0 0 1 138.965 17.211 A 2.039 2.039 0 0 1 139 17.6 Q 139 18.5 138.6 19.35 A 9.825 9.825 0 0 1 138.313 19.916 Q 138.168 20.177 138.024 20.392 A 4.476 4.476 0 0 1 137.8 20.7 A 2.44 2.44 0 0 1 137.418 21.211 A 1.885 1.885 0 0 1 136.75 21.65 Q 136.1 21.9 135.6 22.9 Q 134.6 24.8 133.4 27 Q 132.2 29.2 130.9 31.2 Z M 246.5 61.4 Q 243.7 61.4 241.6 60.1 A 6.753 6.753 0 0 1 238.592 56.147 Q 238.223 54.959 238.131 53.502 A 15.849 15.849 0 0 1 238.1 52.5 A 16.154 16.154 0 0 1 238.252 50.364 Q 238.393 49.307 238.666 48.135 A 30.39 30.39 0 0 1 238.9 47.2 A 17.337 17.337 0 0 1 239.723 44.927 Q 240.221 43.789 240.916 42.571 A 31.965 31.965 0 0 1 241.4 41.75 A 37.369 37.369 0 0 1 245.612 36.142 A 40.699 40.699 0 0 1 245.65 36.1 Q 248.1 33.4 251 31.7 A 13 13 0 0 1 253.809 30.452 A 10.29 10.29 0 0 1 256.8 30 A 8.152 8.152 0 0 1 257.793 30.058 Q 258.319 30.122 258.772 30.26 A 4.846 4.846 0 0 1 258.9 30.3 A 4.355 4.355 0 0 1 260.842 31.622 A 5.257 5.257 0 0 1 260.95 31.75 A 3.754 3.754 0 0 1 261.721 33.476 A 5.19 5.19 0 0 1 261.8 34.4 A 5.148 5.148 0 0 1 261.765 35.029 Q 261.627 36.141 260.95 36.3 Q 260.212 36.474 260.115 36.045 A 0.654 0.654 0 0 1 260.1 35.9 Q 260.1 35.7 260.15 35.5 Q 260.19 35.342 260.198 35.247 A 0.541 0.541 0 0 0 260.2 35.2 Q 260.2 34.4 259.75 33.75 Q 259.3 33.1 258.1 33.1 A 3.95 3.95 0 0 0 256.94 33.292 Q 255.711 33.671 254.15 34.8 A 22.886 22.886 0 0 0 252.075 36.508 Q 251.065 37.437 250.037 38.571 A 39.766 39.766 0 0 0 249.35 39.35 Q 246.9 42.2 245.05 45.6 A 23.882 23.882 0 0 0 243.226 49.85 A 20.212 20.212 0 0 0 242.6 52.4 A 11.884 11.884 0 0 0 242.495 53.006 A 9.937 9.937 0 0 0 242.45 53.35 Q 242.4 53.8 242.4 54.3 Q 242.4 56.6 243.45 58.15 A 3.389 3.389 0 0 0 245.605 59.578 A 5.472 5.472 0 0 0 246.8 59.7 A 7.613 7.613 0 0 0 250.451 58.741 A 10.759 10.759 0 0 0 252.2 57.55 A 24.359 24.359 0 0 0 256.312 53.16 A 27.709 27.709 0 0 0 256.85 52.4 A 46.416 46.416 0 0 0 258.24 50.249 Q 258.871 49.206 259.349 48.265 A 21.419 21.419 0 0 0 259.9 47.1 Q 260.476 45.805 260.793 44.768 A 11.426 11.426 0 0 0 261 44 A 14.544 14.544 0 0 0 261.177 43.118 Q 261.246 42.701 261.276 42.336 A 6.489 6.489 0 0 0 261.3 41.8 A 7.227 7.227 0 0 0 261.271 41.139 Q 261.241 40.813 261.18 40.529 A 4.106 4.106 0 0 0 261.15 40.4 Q 261.035 39.941 260.891 39.599 A 3.369 3.369 0 0 0 260.8 39.4 Q 260.644 38.932 260.61 38.646 A 1.235 1.235 0 0 1 260.6 38.5 A 1.545 1.545 0 0 1 261.107 37.322 A 1.981 1.981 0 0 1 261.25 37.2 A 2.611 2.611 0 0 1 261.807 36.867 A 1.986 1.986 0 0 1 262.6 36.7 Q 263.2 36.7 263.9 37.1 Q 264.623 37.281 265.835 37.38 A 25.991 25.991 0 0 0 266.1 37.4 A 39.22 39.22 0 0 0 267.928 37.486 A 47.689 47.689 0 0 0 269.1 37.5 Q 270.8 37.5 272.55 37.4 Q 274.054 37.314 275.225 37.081 A 12.793 12.793 0 0 0 275.6 37 A 0.746 0.746 0 0 1 275.745 36.948 Q 275.925 36.9 276.2 36.9 A 1.83 1.83 0 0 1 276.438 36.914 Q 276.693 36.948 276.808 37.062 A 0.322 0.322 0 0 1 276.9 37.3 Q 276.9 37.654 276.353 37.929 A 2.743 2.743 0 0 1 276.2 38 A 23.231 23.231 0 0 1 273.693 38.985 Q 272.431 39.393 271.285 39.57 A 11.457 11.457 0 0 1 269.95 39.7 A 177.8 177.8 0 0 1 267.993 39.761 Q 267.222 39.781 266.523 39.79 A 94.839 94.839 0 0 1 265.2 39.8 Q 265.323 41.335 264.88 43.003 A 13.596 13.596 0 0 1 264.1 45.15 Q 262.8 48 261.4 50.2 A 57.27 57.27 0 0 1 259.08 53.364 A 68.474 68.474 0 0 1 257.5 55.3 A 22.411 22.411 0 0 1 252.936 59.428 A 21.044 21.044 0 0 1 252.6 59.65 Q 249.9 61.4 246.5 61.4 Z M 195.9 61.4 Q 194.1 61.7 192.3 61.7 A 15.195 15.195 0 0 1 189.032 61.367 A 10.71 10.71 0 0 1 185 59.6 A 6.816 6.816 0 0 1 182.158 54.589 A 10.01 10.01 0 0 1 182.1 53.5 Q 182.1 51.768 182.829 49.515 A 24.998 24.998 0 0 1 183.5 47.7 Q 184.5 45.4 187.2 42.4 Q 189.9 39.4 193.5 36.55 Q 197.1 33.7 200.8 31.85 Q 204.5 30 207.5 30 A 6.981 6.981 0 0 1 208.659 30.093 A 5.588 5.588 0 0 1 209.5 30.3 A 6.242 6.242 0 0 1 210.815 30.954 A 5.456 5.456 0 0 1 211.4 31.4 Q 212.139 32.047 212.195 33.291 A 4.629 4.629 0 0 1 212.2 33.5 L 212.2 34.1 Q 212.2 34.32 212.092 34.594 A 2.536 2.536 0 0 1 212 34.8 A 0.804 0.804 0 0 1 211.979 34.965 Q 211.902 35.319 211.55 36.1 Q 211.1 37.1 210.55 37.85 A 2.431 2.431 0 0 1 210.396 38.041 Q 210.003 38.476 209.693 38.277 A 0.567 0.567 0 0 1 209.6 38.2 A 1.004 1.004 0 0 1 209.316 37.881 Q 209.207 37.683 209.201 37.434 A 1.225 1.225 0 0 1 209.2 37.4 Q 209.2 36.9 209.45 36.25 A 4.479 4.479 0 0 0 209.602 35.784 Q 209.663 35.552 209.686 35.343 A 2.23 2.23 0 0 0 209.7 35.1 A 2.806 2.806 0 0 0 209.361 33.771 A 3.27 3.27 0 0 0 209.35 33.75 Q 209 33.1 208.2 33.1 A 5.711 5.711 0 0 0 206.852 33.279 Q 205.543 33.599 203.862 34.491 A 23.545 23.545 0 0 0 203.3 34.8 Q 200.3 36.5 197.15 39.35 Q 194 42.2 191.5 45.6 Q 189 49 188 52.4 A 7.598 7.598 0 0 0 187.703 53.381 A 6.342 6.342 0 0 0 187.6 53.95 A 11.216 11.216 0 0 0 187.504 55.136 A 10.001 10.001 0 0 0 187.5 55.4 Q 187.5 57.02 188.286 57.962 A 2.997 2.997 0 0 0 188.95 58.55 A 5.68 5.68 0 0 0 191.013 59.366 A 7.863 7.863 0 0 0 192.5 59.5 Q 194.8 59.5 197.2 58.8 Q 204 56.8 208.25 53.3 Q 212.226 50.026 216.246 45.001 A 79.949 79.949 0 0 0 216.8 44.3 A 2.188 2.188 0 0 1 216.943 44.138 Q 217.255 43.818 217.5 43.9 A 2.608 2.608 0 0 0 217.678 43.953 Q 217.863 44 218 44 A 0.387 0.387 0 0 1 218.24 44.232 Q 218.273 44.31 218.288 44.413 A 1.3 1.3 0 0 1 218.3 44.6 A 1.034 1.034 0 0 1 218.288 44.75 Q 218.266 44.903 218.2 45.1 Q 218.123 45.33 218.047 45.501 A 2.566 2.566 0 0 1 218 45.6 A 59.509 59.509 0 0 1 209.786 54.64 A 54.79 54.79 0 0 1 208.5 55.75 A 25.474 25.474 0 0 1 198.652 60.791 A 31.414 31.414 0 0 1 195.9 61.4 Z M 221.6 42.3 A 45.58 45.58 0 0 0 225.352 39.418 Q 227.132 37.906 228.973 36.079 A 76.022 76.022 0 0 0 229.5 35.55 A 117.63 117.63 0 0 0 236.064 28.311 A 131.943 131.943 0 0 0 237.55 26.5 A 149.765 149.765 0 0 0 243.081 19.206 A 132.371 132.371 0 0 0 244.75 16.8 A 109.729 109.729 0 0 0 247.012 13.327 Q 248.207 11.409 249.171 9.658 A 59.947 59.947 0 0 0 250 8.1 A 14.008 14.008 0 0 0 250.401 7.31 Q 250.694 6.681 250.85 6.15 A 6.779 6.779 0 0 0 251.021 5.435 Q 251.09 5.053 251.099 4.706 A 4.016 4.016 0 0 0 251.1 4.6 Q 251.1 2.7 249.5 2.7 Q 248.268 2.7 246.493 3.863 A 14.787 14.787 0 0 0 246 4.2 A 45.139 45.139 0 0 0 239.716 10.192 A 57.535 57.535 0 0 0 236 14.95 Q 231.4 21.5 227.8 28.7 A 213.293 213.293 0 0 0 224.066 36.547 A 169.455 169.455 0 0 0 221.6 42.3 Z" vector-effect="non-scaling-stroke"/></g></svg>
